<?xml version="1.0" standalone="no"?>
<!DOCTYPE svg PUBLIC "-//W3C//DTD SVG 1.1//EN" "http://www.w3.org/Graphics/SVG/1.1/DTD/svg11.dtd" >
<svg xmlns="http://www.w3.org/2000/svg" xmlns:xlink="http://www.w3.org/1999/xlink" version="1.1">
<metadata></metadata>
<defs>
<font id="montsemibold" horiz-adv-x="550" >
<font-face units-per-em="2048" ascent="1638" descent="-410" />
<missing-glyph horiz-adv-x="516" />
<glyph horiz-adv-x="0" />
<glyph horiz-adv-x="682" />
<glyph unicode=" "  horiz-adv-x="516" />
<glyph unicode="&#x09;" horiz-adv-x="516" />
<glyph unicode="&#xa0;" horiz-adv-x="516" />
<glyph unicode="!" horiz-adv-x="598" d="M175 0v261h249v-261h-249zM184 422v1053h230v-1053h-230z" />
<glyph unicode="&#x22;" horiz-adv-x="839" d="M135 918v520h212v-520h-212zM494 918v520h211v-520h-211z" />
<glyph unicode="#" horiz-adv-x="1323" d="M91 385v197h187l45 282h-185v190h216l59 380h209l-58 -380h310l58 380h209l-58 -380h148v-190h-175l-41 -282h168v-197h-200l-57 -383h-209l56 383h-317l-62 -383h-209l61 383h-155zM488 582h317l41 282h-312z" />
<glyph unicode="$" horiz-adv-x="1181" d="M81 440h229q0 -114 82 -178t207 -64q114 0 193.5 56t79.5 146q0 28 -9.5 52t-22 41t-39.5 33t-46.5 25.5t-60 21t-62 17t-70.5 16.5q-85 19 -132 32t-119 44.5t-110 69t-67.5 102.5t-29.5 149q0 164 104 266t285 123v146h190v-147q181 -24 280 -136t99 -290h-224 q0 104 -72.5 162t-184.5 58q-107 0 -178.5 -46t-71.5 -126q0 -26 9 -48.5t21.5 -38.5t38.5 -31.5t45 -24.5t58 -21t60.5 -17.5t68.5 -16.5t73.5 -17.5t72 -20t73 -25t66 -31t61.5 -39.5t49.5 -49.5t41 -62.5t24 -76t9.5 -92q0 -172 -110.5 -281.5t-296.5 -133.5v-157h-186 v156q-201 23 -314.5 142.5t-113.5 311.5z" />
<glyph unicode="%" horiz-adv-x="1595" d="M62 1069q0 138 89 226t229 88q139 0 227.5 -88t88.5 -226q0 -139 -88.5 -227.5t-227.5 -88.5q-140 0 -229 88.5t-89 227.5zM233 1069q0 -64 42 -106.5t105 -42.5q64 0 105 42t41 107q0 64 -41 105.5t-105 41.5q-63 0 -105 -41.5t-42 -105.5zM274 1l821 1362h205 l-821 -1362h-205zM901 295q0 138 88.5 225t227.5 87t227.5 -87t88.5 -225t-88.5 -225.5t-227.5 -87.5t-227.5 87.5t-88.5 225.5zM1072 295q0 -64 41 -105t104 -41q64 0 104.5 41t40.5 105t-40.5 105t-104.5 41q-63 0 -104 -41t-41 -105z" />
<glyph unicode="&#x26;" horiz-adv-x="1296" d="M87 371q0 59 15 112.5t39 94.5t60.5 80t74 68t84.5 59q-85 117 -117 194.5t-32 154.5q0 148 104 235t276 87q168 0 272 -87.5t104 -228.5q0 -58 -19 -110.5t-46.5 -91t-74.5 -78t-86.5 -65t-97.5 -59.5q97 -121 287 -336q65 114 68 255h192q-3 -236 -122 -410 q32 -35 222 -245h-252q-30 34 -99 109q-171 -132 -411 -132q-198 0 -319.5 108t-121.5 286zM301 378q0 -90 68.5 -145t179.5 -55q143 0 255 81q-205 228 -328 377q-84 -57 -129.5 -118t-45.5 -140zM414 1134q0 -84 117 -250q56 32 92 55.5t72 55.5t53.5 67.5t17.5 76.5 q0 64 -49 104.5t-126 40.5q-80 0 -128.5 -41.5t-48.5 -108.5z" />
<glyph unicode="'" horiz-adv-x="483" d="M135 918v520h212v-520h-212z" />
<glyph unicode="(" horiz-adv-x="657" d="M96 663q0 267 76.5 509.5t215.5 443.5h252q-136 -179 -227.5 -429.5t-91.5 -523.5q0 -274 91 -524.5t227 -424.5h-251q-139 199 -215.5 441t-76.5 508z" />
<glyph unicode=")" horiz-adv-x="657" d="M18 1616h252q140 -201 216.5 -444t76.5 -509q0 -265 -77 -507.5t-216 -441.5h-251q136 174 227 424.5t91 524.5q0 273 -91.5 523.5t-227.5 429.5z" />
<glyph unicode="*" horiz-adv-x="839" d="M79 1146l57 162l197 -70v210h174v-210l197 70l59 -162l-204 -68l138 -169l-133 -110l-144 182l-143 -182l-135 110l138 168z" />
<glyph unicode="+" horiz-adv-x="1093" d="M69 590v210h367v374h223v-374h365v-210h-365v-385h-223v385h-367z" />
<glyph unicode="," horiz-adv-x="528" d="M135 0v260h258v-241q0 -132 -65 -211t-181 -102v117q128 30 128 177h-140z" />
<glyph unicode="-" horiz-adv-x="925" d="M135 464v219h657v-219h-657z" />
<glyph unicode="." horiz-adv-x="516" d="M133 0v261h250v-261h-250z" />
<glyph unicode="/" horiz-adv-x="946" d="M48 -152l610 1711h238l-608 -1711h-240z" />
<glyph unicode="0" horiz-adv-x="1284" d="M104 682q0 326 144.5 515.5t393.5 189.5q248 0 392.5 -189.5t144.5 -515.5q0 -325 -145 -516t-392 -191q-248 0 -393 191t-145 516zM328 682q0 -236 82.5 -367t231.5 -131q148 0 231 131t83 366t-83.5 366t-230.5 131q-149 0 -231.5 -130.5t-82.5 -365.5z" />
<glyph unicode="1" horiz-adv-x="702" d="M59 1163v199h459v-1362h-218v1163h-241z" />
<glyph unicode="2" horiz-adv-x="1095" d="M71 0v60q306 334 442.5 499t181 250.5t44.5 169.5q0 90 -56.5 145t-148.5 55q-96 0 -154.5 -56.5t-58.5 -146.5v-30h-221v31q0 184 119 297.5t313 113.5q190 0 310 -114.5t120 -293.5q0 -95 -34 -183t-135 -227.5t-298 -360.5h508v-209h-932z" />
<glyph unicode="3" horiz-adv-x="1110" d="M87 411h220q6 -102 71.5 -164.5t166.5 -62.5q107 0 176 70.5t69 179.5t-74.5 177.5t-191.5 68.5h-172v42l283 439h-509v201h834v-46l-301 -464q160 -29 257 -145t97 -280q0 -196 -133.5 -324t-334.5 -128q-195 0 -322.5 122t-135.5 314z" />
<glyph unicode="4" horiz-adv-x="1120" d="M39 276v45l465 1041h226l-399 -891h390l37 380h172v-380h131v-195h-131v-276h-213v276h-678z" />
<glyph unicode="5" horiz-adv-x="1091" d="M83 411h221q4 -100 72 -163.5t170 -63.5q103 0 171.5 69.5t68.5 174.5q0 108 -74 179t-187 71h-361l-26 32l72 652h705v-201h-526l-32 -289h176q207 0 341.5 -126.5t134.5 -317.5q0 -195 -132.5 -324t-330.5 -129q-197 0 -327.5 123.5t-135.5 312.5z" />
<glyph unicode="6" horiz-adv-x="1150" d="M93 451q0 189 146 444l272 476h243q-240 -423 -284 -507q81 32 163 32q191 0 325 -124.5t134 -320.5q0 -208 -139.5 -342t-357.5 -134q-221 0 -361.5 133.5t-140.5 342.5zM316 451q0 -116 78.5 -191.5t198.5 -75.5t198 75t78 192q0 118 -77.5 192.5t-198.5 74.5 q-120 0 -198.5 -75t-78.5 -192z" />
<glyph unicode="7" horiz-adv-x="1042" d="M55 1161v201h944v-34l-529 -1328h-233l466 1161h-648z" />
<glyph unicode="8" horiz-adv-x="1189" d="M101 402q0 102 47.5 187t133.5 138q-65 50 -101.5 125t-36.5 160q0 166 125.5 271t325.5 105t324 -104.5t124 -271.5q0 -87 -35.5 -162.5t-98.5 -122.5q85 -51 132.5 -136.5t47.5 -188.5q0 -187 -138.5 -307t-356.5 -120q-220 0 -356.5 118t-136.5 309zM323 399 q0 -102 75.5 -166.5t196.5 -64.5q122 0 197 64.5t75 166.5q0 103 -75 168t-197 65q-121 0 -196.5 -65t-75.5 -168zM362 1009q0 -86 65 -141t168 -55q102 0 166 55t64 141q0 85 -64 139.5t-166 54.5q-103 0 -168 -54.5t-65 -139.5z" />
<glyph unicode="9" horiz-adv-x="1146" d="M59 912q0 208 139.5 342t356.5 134q219 0 359 -133.5t140 -342.5q0 -200 -143 -444l-273 -468h-243q227 395 284 499q-78 -32 -162 -32q-196 0 -327 127.5t-131 317.5zM278 912q0 -117 78.5 -192t200.5 -75q121 0 200 75t79 192q0 116 -79 192.5t-200 76.5t-200 -76 t-79 -193z" />
<glyph unicode=":" horiz-adv-x="522" d="M136 0v261h250v-261h-250zM136 764v261h250v-261h-250z" />
<glyph unicode=";" horiz-adv-x="534" d="M137 0v260h258v-241q0 -132 -65 -211t-181 -102v117q128 30 128 177h-140zM143 766v261h250v-261h-250z" />
<glyph unicode="&#x3c;" horiz-adv-x="1087" d="M55 663v45l880 569v-255l-540 -333l540 -328v-256z" />
<glyph unicode="=" horiz-adv-x="1267" d="M142 359v209h983v-209h-983zM142 809v210h983v-210h-983z" />
<glyph unicode="&#x3e;" horiz-adv-x="1087" d="M152 105v256l541 328l-541 333v255l881 -569v-45z" />
<glyph unicode="?" horiz-adv-x="1077" d="M59 1084q3 136 71 236t170 148t223 48q125 0 228.5 -50.5t167.5 -151.5t64 -235q0 -73 -16.5 -130.5t-51.5 -103.5t-61.5 -71t-75.5 -64q-36 -29 -50 -41t-40.5 -39.5t-37.5 -48.5t-21 -53t-10 -67v-45h-228v45q0 43 7 81.5t16 67t27.5 57.5t32.5 47t40 42t40 35.5 t43 33.5q32 24 50.5 39t43.5 40.5t38 48.5t22.5 56t9.5 70q0 102 -68 164.5t-171 62.5q-101 0 -173 -60t-76 -162h-214zM380 0v261h249v-261h-249z" />
<glyph unicode="@" horiz-adv-x="2060" d="M86 487q0 200 72.5 367.5t199 280.5t299 175.5t370.5 62.5q199 0 371.5 -62t298 -173t197.5 -275t72 -359q0 -210 -107 -336.5t-266 -126.5q-88 0 -157.5 38.5t-104.5 105.5q-60 -78 -149 -121t-194 -43q-198 0 -328.5 132t-130.5 332t130.5 331.5t328.5 131.5 q199 0 325 -142l28 93h113v-522q0 -73 41 -119t104 -46q81 0 134 80t53 212q0 202 -95 360t-267 246t-392 88q-165 0 -307.5 -53t-242.5 -146t-157 -225.5t-57 -286.5q0 -308 200 -500.5t520 -192.5q201 0 351 79v-176q-185 -80 -373 -80q-152 0 -288.5 41t-244 118.5 t-185.5 183.5t-120 241t-42 286zM732 487q0 -118 77 -196t194 -78q118 0 195 77.5t77 196.5t-76.5 195.5t-195.5 76.5q-117 0 -194 -77.5t-77 -194.5z" />
<glyph unicode="A" horiz-adv-x="1445" d="M27 0l576 1434h222l593 -1434h-256l-123 312h-640l-122 -312h-250zM481 523h476l-240 604z" />
<glyph unicode="B" horiz-adv-x="1318" d="M182 0v1434h578q180 0 298 -105t118 -264q0 -94 -45 -181t-122 -137q96 -45 150 -137t54 -208q0 -169 -128 -285.5t-314 -116.5h-589zM414 225h344q94 0 154.5 57t60.5 146q0 87 -61 144.5t-154 57.5h-344v-405zM414 844h332q85 0 140 53.5t55 133.5t-55 133t-140 53 h-332v-373z" />
<glyph unicode="C" horiz-adv-x="1585" d="M91 716q0 158 56 296.5t153 236.5t234 154t294 56q254 0 442 -146t244 -388h-238q-51 143 -170 224.5t-278 81.5q-216 0 -357 -145.5t-141 -369.5t141 -369t357 -145q164 0 284 87t169 240h239q-56 -253 -244.5 -403.5t-447.5 -150.5q-157 0 -294 56t-234 153.5 t-153 235.5t-56 296z" />
<glyph unicode="D" horiz-adv-x="1507" d="M182 0v1434h506q156 0 291.5 -54t231 -148.5t150 -228t54.5 -286.5q0 -205 -93.5 -369t-259.5 -256t-374 -92h-506zM418 219h263q217 0 355 140.5t138 357.5t-138 357t-355 140h-263v-995z" />
<glyph unicode="E" horiz-adv-x="1138" d="M182 0v1434h833v-221h-597v-374h544v-216h-544v-401h619v-222h-855z" />
<glyph unicode="F" horiz-adv-x="1081" d="M182 0v1434h827v-221h-591v-406h538v-216h-538v-591h-236z" />
<glyph unicode="G" horiz-adv-x="1634" d="M91 716q0 158 55 296t151.5 236t232 154.5t290.5 56.5q262 0 460 -149t247 -383h-243q-46 138 -171.5 221t-287.5 83q-218 0 -356.5 -144t-138.5 -371q0 -229 137 -372t358 -143q172 0 299.5 89t168.5 235h-511v203h766q-3 -217 -95 -389t-256 -269t-372 -97 q-156 0 -292.5 56t-233.5 154t-152.5 236.5t-55.5 296.5z" />
<glyph unicode="H" horiz-adv-x="1490" d="M182 0v1434h236v-586h655v586h236v-1434h-236v625h-655v-625h-236z" />
<glyph unicode="I" horiz-adv-x="600" d="M182 0v1434h236v-1434h-236z" />
<glyph unicode="J" horiz-adv-x="1232" d="M52 481v39h233v-28q0 -130 77.5 -211.5t199.5 -81.5q118 0 194 82t76 211v942h233v-953q0 -223 -141 -365.5t-362 -142.5t-365.5 143.5t-144.5 364.5z" />
<glyph unicode="K" horiz-adv-x="1320" d="M182 0v1434h236v-586h167l408 586h289l-489 -692l534 -742h-292l-449 629h-168v-629h-236z" />
<glyph unicode="L" horiz-adv-x="1056" d="M182 0v1434h236v-1215h596v-219h-832z" />
<glyph unicode="M" horiz-adv-x="1974" d="M83 0l235 1434h231l437 -975l439 975h235l230 -1434h-240l-166 1039l-466 -1017h-60l-467 1016l-168 -1038h-240z" />
<glyph unicode="N" horiz-adv-x="1538" d="M182 0v1434h213l730 -1007v1007h230v-1434h-197l-745 1024v-1024h-231z" />
<glyph unicode="O" horiz-adv-x="1691" d="M90 717q0 210 98 380t271.5 267t387.5 97t387 -97t270.5 -267t97.5 -380t-97.5 -380t-270.5 -267t-387 -97t-387.5 97t-271.5 267t-98 380zM330 717q0 -145 67 -263.5t185.5 -186t264.5 -67.5q222 0 369 147.5t147 369.5t-147 369.5t-369 147.5q-146 0 -264.5 -67.5 t-185.5 -186t-67 -263.5z" />
<glyph unicode="P" horiz-adv-x="1259" d="M182 0v1434h530q209 0 349 -135t140 -339q0 -203 -140 -338t-349 -135h-294v-487h-236zM418 710h283q114 0 187.5 71t73.5 179t-73.5 179t-187.5 71h-283v-500z" />
<glyph unicode="Q" horiz-adv-x="1693" d="M90 717q0 210 98 380t271.5 267t387.5 97t387 -97t270.5 -267t97.5 -380q0 -167 -63 -310t-177 -245l277 -324h-265l-181 211q-158 -76 -346 -76q-214 0 -387.5 97t-271.5 267t-98 380zM330 717q0 -145 67 -263.5t185.5 -186.5t264.5 -68q98 0 189 33l-313 366h265 l221 -258q73 71 113.5 168t40.5 209q0 222 -147 369.5t-369 147.5q-146 0 -264.5 -67.5t-185.5 -186t-67 -263.5z" />
<glyph unicode="R" horiz-adv-x="1333" d="M182 0v1434h558q208 0 345 -128t137 -326q0 -144 -79 -255.5t-212 -160.5l331 -564h-264l-308 531h-272v-531h-236zM418 751h309q116 0 186 64.5t70 166.5q0 101 -70.5 166t-185.5 65h-309v-462z" />
<glyph unicode="S" horiz-adv-x="1241" d="M89 451h239q0 -116 84.5 -182t215.5 -66q119 0 201 58t82 154q0 21 -4 39.5t-14 34.5t-19 28.5t-28.5 24.5t-32 20.5t-39.5 18t-42 15t-47.5 14t-48 12t-51.5 12.5q-183 44 -264 83q-182 88 -204 269q-4 28 -4 58q0 193 135.5 302t366.5 109q232 0 363.5 -118t131.5 -322 h-232q0 104 -75.5 162.5t-192.5 58.5q-112 0 -186.5 -48.5t-74.5 -133.5q0 -32 10.5 -58t35 -46.5t48 -34.5t67 -28t73 -22t83.5 -21q185 -46 267 -85q187 -91 214 -273q5 -33 5 -69q0 -139 -70.5 -240t-187.5 -150t-264 -49q-244 0 -392.5 127.5t-148.5 345.5z" />
<glyph unicode="T" horiz-adv-x="1163" d="M44 1214v220h1075l1 -220h-421v-1214h-235v1214h-420z" />
<glyph unicode="U" horiz-adv-x="1484" d="M167 536v898h236v-883q0 -158 95 -255t245 -97q149 0 243.5 97t94.5 255v883h237v-898q0 -163 -75 -292t-206 -200t-294 -71t-294.5 71t-206.5 200t-75 292z" />
<glyph unicode="V" horiz-adv-x="1413" d="M28 1434h260l421 -1097l412 1097h257l-558 -1434h-220z" />
<glyph unicode="W" horiz-adv-x="2115" d="M37 1434h249l324 -1059l402 1038h87l413 -1038l316 1059h247l-448 -1434h-208l-363 925l-353 -925h-209z" />
<glyph unicode="X" horiz-adv-x="1251" d="M13 0l470 752l-436 682h265l315 -504l313 504h262l-432 -691l469 -743h-264l-348 559l-348 -559h-266z" />
<glyph unicode="Y" horiz-adv-x="1366" d="M47 1434h254l383 -642l384 642h254l-519 -860v-574h-242v575z" />
<glyph unicode="Z" horiz-adv-x="1171" d="M53 0v37l679 1177h-645v220h1007v-44l-675 -1171h697v-219h-1063z" />
<glyph unicode="[" horiz-adv-x="698" d="M183 -295v1922h452v-192h-239v-1533h243v-197h-456z" />
<glyph unicode="\" horiz-adv-x="946" d="M50 1559h238l610 -1711h-239z" />
<glyph unicode="]" horiz-adv-x="698" d="M61 -98h243v1533h-239v192h451v-1922h-455v197z" />
<glyph unicode="^" horiz-adv-x="1122" d="M64 694l480 744h37l477 -744h-257l-241 388l-240 -388h-256z" />
<glyph unicode="_" horiz-adv-x="1056" d="M0 -88h1057v-217h-1057v217z" />
<glyph unicode="`" horiz-adv-x="1228" d="M230 1544h242l127 -311h-175z" />
<glyph unicode="a" horiz-adv-x="1425" d="M81 554q0 164 75 296.5t207 207.5t294 75q120 0 224 -43t180 -122l27 139l175 -1v-1105h-183l-22 134q-76 -77 -179 -119.5t-222 -42.5q-162 0 -294 75.5t-207 209t-75 296.5zM312 554q0 -156 103 -259.5t259 -103.5t258.5 103.5t102.5 259.5t-102.5 259t-258.5 103 t-259 -103.5t-103 -258.5z" />
<glyph unicode="b" horiz-adv-x="1409" d="M162 0v1502h227v-498q154 129 365 129q250 0 412.5 -164.5t162.5 -415.5q0 -249 -162.5 -414.5t-412.5 -165.5q-233 0 -391 153l-29 -126h-172zM373 553q0 -154 103.5 -258t259.5 -104t258.5 103t102.5 259t-102.5 259.5t-258.5 103.5t-259.5 -104t-103.5 -259z" />
<glyph unicode="c" horiz-adv-x="1273" d="M81 554q0 163 75.5 295.5t208.5 208t296 75.5q204 0 353 -115t195 -306h-225q-44 95 -130 149.5t-194 54.5q-149 0 -248.5 -104t-99.5 -258t100 -259t248 -105q109 0 193.5 56t129.5 157h229q-46 -194 -197 -312t-355 -118q-162 0 -295 76t-208.5 209t-75.5 296z" />
<glyph unicode="d" horiz-adv-x="1409" d="M81 553q0 250 162.5 415t412.5 165q210 0 364 -129v498h227v-1502h-172l-29 125q-159 -153 -390 -153q-249 0 -412 166t-163 415zM313 553q0 -156 102 -259.5t258 -103.5t259.5 104t103.5 259t-103.5 259t-259.5 104t-258 -103.5t-102 -259.5z" />
<glyph unicode="e" horiz-adv-x="1292" d="M81 553q0 163 74 296t204 208.5t290 75.5q165 0 295 -78.5t199.5 -211t69.5 -293.5q0 -32 -5 -74h-898q21 -134 112 -212t227 -78q98 0 175.5 43t121.5 119h240q-66 -175 -209 -275t-328 -100q-242 0 -405 166.5t-163 413.5zM316 660h669q-31 126 -120.5 197t-215.5 71 q-127 0 -216 -72t-117 -196z" />
<glyph unicode="f" horiz-adv-x="817" d="M42 906v189h208v94q0 351 353 351h184v-182h-141q-93 0 -134.5 -41t-41.5 -133v-89h319v-189h-313v-906h-227v906h-207z" />
<glyph unicode="g" horiz-adv-x="1378" d="M81 582q0 152 71.5 278.5t197 199.5t277.5 73q119 0 223.5 -45t180.5 -125l36 143h149v-961q0 -265 -147.5 -416.5t-404.5 -151.5q-212 0 -355.5 103.5t-185.5 285.5h227q31 -88 117.5 -138t194.5 -50q146 0 238.5 90.5t92.5 245.5v51q-154 -133 -366 -133 q-152 0 -277 72.5t-197 198.5t-72 279zM312 582q0 -146 97 -242.5t244 -96.5t243 96t96 243t-95.5 243t-243.5 96q-147 0 -244 -96.5t-97 -242.5z" />
<glyph unicode="h" horiz-adv-x="1314" d="M162 0v1502h227v-522q65 72 158 111.5t202 39.5q193 0 305.5 -125.5t112.5 -339.5v-666h-227v620q0 151 -64 229t-190 78q-129 0 -213 -94t-84 -241v-592h-227z" />
<glyph unicode="i" d="M158 1277v235h235v-235h-235zM162 0v1106h227v-1106h-227z" />
<glyph unicode="j" horiz-adv-x="575" d="M-88 -188h79q95 0 145.5 50.5t50.5 145.5v1098h227v-1115q0 -173 -107.5 -280t-281.5 -107h-113v208zM184 1277v235h235v-235h-235z" />
<glyph unicode="k" horiz-adv-x="1163" d="M185 0v1502h227v-824h140l298 428h270l-375 -531l414 -575h-278l-331 472h-138v-472h-227z" />
<glyph unicode="l" d="M162 0v1502h227v-1502h-227z" />
<glyph unicode="m" horiz-adv-x="1935" d="M162 0v1106h161l39 -143q63 79 153.5 123.5t190.5 44.5q111 0 197.5 -51.5t134.5 -142.5q61 90 156 142t204 52q174 0 282.5 -120t108.5 -308v-703h-227v647q0 134 -56 207t-159 73q-111 0 -185.5 -91t-74.5 -231v-605h-222v647q0 134 -55.5 207t-159.5 73 q-111 0 -186 -91t-75 -231v-605h-227z" />
<glyph unicode="n" horiz-adv-x="1314" d="M162 0v1106h158l45 -154q64 85 163 132t219 47q192 0 306 -129t114 -336v-666h-227v620q0 151 -64.5 229t-189.5 78q-130 0 -213.5 -94.5t-83.5 -240.5v-592h-227z" />
<glyph unicode="o" horiz-adv-x="1343" d="M81 553q0 165 77 297.5t212 207.5t302 75t302 -75t212 -208t77 -297t-77 -296.5t-212 -208t-302 -75.5t-302 75.5t-212 208t-77 296.5zM312 553q0 -159 101.5 -261t258.5 -102t258.5 102t101.5 261t-101.5 261t-258.5 102t-258.5 -102t-101.5 -261z" />
<glyph unicode="p" horiz-adv-x="1411" d="M162 -396v1502h153l43 -136q76 78 178.5 120.5t220.5 42.5q163 0 294 -75t204.5 -208t73.5 -297q0 -249 -162.5 -415t-409.5 -166q-213 0 -368 134v-502h-227zM376 553q0 -155 103.5 -259t259.5 -104t258 103.5t102 259.5t-102 259.5t-258 103.5t-259.5 -104t-103.5 -259 z" />
<glyph unicode="q" horiz-adv-x="1411" d="M81 553q0 123 43.5 231t119 184.5t182 120.5t228.5 44q238 0 398 -163l43 136h153v-1502h-227v502q-155 -134 -367 -134q-122 0 -229 44.5t-182 121.5t-118.5 184.5t-43.5 230.5zM311 553q0 -156 102 -259.5t258 -103.5t259.5 104t103.5 259t-103.5 259t-259.5 104 t-258 -103.5t-102 -259.5z" />
<glyph unicode="r" horiz-adv-x="806" d="M162 0v1106h154l38 -151q118 157 339 157h98v-215h-120q-140 0 -211 -78t-71 -229v-590h-227z" />
<glyph unicode="s" horiz-adv-x="1060" d="M78 351h222q4 -85 69.5 -131.5t168.5 -46.5q94 0 155 38.5t61 105.5q0 30 -14.5 54t-35 38.5t-58 26.5t-67 18t-79.5 15q-51 9 -81 15t-78 19.5t-77.5 28.5t-64.5 40t-54.5 55.5t-33 74.5t-13.5 97q0 149 118.5 241.5t310.5 92.5t308.5 -96.5t119.5 -257.5h-215 q-3 78 -60 119.5t-158 41.5q-94 0 -149 -36.5t-55 -97.5q0 -24 8 -42.5t27.5 -32.5t37 -23t52 -17t56.5 -12.5t65 -11.5q162 -27 233 -57q170 -73 180 -257q1 -12 1 -26q0 -161 -123 -257.5t-325 -96.5t-324.5 103t-127.5 275z" />
<glyph unicode="t" horiz-adv-x="839" d="M22 911v44l385 409h39v-258h329v-195h-327v-499q0 -99 53.5 -152.5t153.5 -53.5h126v-206h-169q-182 0 -287 105.5t-105 288.5v517h-198z" />
<glyph unicode="u" horiz-adv-x="1294" d="M145 467v639h227v-607q0 -144 74 -226.5t202 -82.5t201.5 83t73.5 226v607h227v-639q0 -224 -137 -359t-365 -135t-365.5 135t-137.5 359z" />
<glyph unicode="v" horiz-adv-x="1181" d="M23 1106h240l331 -820l325 820h234l-455 -1106h-208z" />
<glyph unicode="w" horiz-adv-x="1740" d="M32 1106h234l250 -745l317 733h74l321 -739l254 751h228l-371 -1106h-184l-285 673l-284 -673h-184z" />
<glyph unicode="x" horiz-adv-x="1079" d="M10 0l393 572l-363 534h256l244 -372l252 372h250l-367 -523l395 -583h-256l-275 421l-279 -421h-250z" />
<glyph unicode="y" horiz-adv-x="1214" d="M23 1106h247l351 -771l330 771h242l-508 -1126q-95 -211 -194 -293.5t-266 -82.5h-113v204h95q108 0 159 42.5t113 177.5l25 52z" />
<glyph unicode="z" horiz-adv-x="1003" d="M48 0v29l536 869h-494v208h844v-34l-531 -861h532v-211h-887z" />
<glyph unicode="{" horiz-adv-x="729" d="M68 564v189h34q47 0 80 32.5t33 79.5v482q0 110 79 188t189 78h180v-199h-98q-54 0 -89.5 -35.5t-35.5 -89.5v-411q0 -74 -38.5 -133.5t-97.5 -85.5q59 -25 97.5 -85t38.5 -134v-407q0 -53 35.5 -89t89.5 -36h100v-200h-182q-111 0 -189.5 78.5t-78.5 190.5v476 q0 46 -33 78.5t-80 32.5h-34z" />
<glyph unicode="|" horiz-adv-x="577" d="M183 -389v2109h212v-2109h-212z" />
<glyph unicode="}" horiz-adv-x="729" d="M65 -92h100q54 0 89.5 36t35.5 89v407q0 74 38.5 134t97.5 85q-59 26 -97.5 85.5t-38.5 133.5v411q0 54 -35.5 89.5t-89.5 35.5h-98v199h180q110 0 189 -78t79 -188v-482q0 -47 33 -79.5t80 -32.5h34v-189h-34q-47 0 -80 -32.5t-33 -78.5v-476q0 -112 -78.5 -190.5 t-189.5 -78.5h-182v200z" />
<glyph unicode="~" horiz-adv-x="1196" d="M137 480v35q0 154 74.5 244.5t202.5 90.5q73 0 129.5 -26.5t119.5 -84.5q46 -40 73.5 -55.5t57.5 -15.5q52 0 84 39t32 103v32h161v-34q0 -154 -73.5 -244t-199.5 -90q-71 0 -130 26t-128 85q-44 38 -70.5 52.5t-53.5 14.5q-51 0 -84 -40.5t-33 -103.5v-28h-162z" />
<glyph unicode="&#xa1;" horiz-adv-x="565" d="M157 845v261h250v-261h-250zM168 -369v1053h230v-1053h-230z" />
<glyph unicode="&#xa2;" horiz-adv-x="1224" d="M89 529q0 211 129 361.5t332 180.5v169h181v-169q161 -25 275 -130t152 -263h-216q-41 90 -122 140.5t-182 50.5q-141 0 -235 -97.5t-94 -243.5q0 -145 94.5 -243t234.5 -98q102 0 182 52.5t123 146.5l218 -3q-39 -160 -154 -266.5t-276 -131.5v-155h-181v155 q-201 30 -331 182t-130 362z" />
<glyph unicode="&#xa3;" horiz-adv-x="1228" d="M95 0v156l136 30v376h-111v185h111v241q0 182 122 297.5t313 115.5q186 0 300.5 -112.5t114.5 -294.5v-24h-202v12q0 94 -60 154.5t-153 60.5q-95 0 -155.5 -61.5t-60.5 -159.5v-229h331v-185h-331v-370h485v167h202v-359h-1042z" />
<glyph unicode="&#xa4;" horiz-adv-x="1232" d="M96 221l150 155q-72 110 -72 239q0 139 77 251l-150 151l131 131l156 -155q105 62 226 62q122 0 229 -64l156 157l130 -131l-152 -153q77 -114 77 -249q0 -129 -70 -237l155 -159l-130 -130l-156 158q-110 -70 -239 -70q-130 0 -238 69l-149 -155zM361 617 q0 -103 75.5 -178t179.5 -75q103 0 176 74.5t73 178.5q0 103 -72.5 177t-176.5 74q-103 0 -179 -73.5t-76 -177.5z" />
<glyph unicode="&#xa5;" horiz-adv-x="1331" d="M61 1362h232l370 -579l374 579h234l-495 -753v-47h367v-138h-367v-113h367v-135h-367v-176h-224v176h-366v135h366v113h-366v138h366v44z" />
<glyph unicode="&#xa6;" horiz-adv-x="577" d="M183 -389v921h212v-921h-212zM183 819v901h212v-901h-212z" />
<glyph unicode="&#xa7;" horiz-adv-x="1073" d="M97 678q0 177 153 268q-97 75 -97 205q0 148 101 229t268 81q182 0 291.5 -94.5t109.5 -249.5h-188q0 78 -61.5 123.5t-153.5 45.5q-76 0 -126.5 -36t-50.5 -97q0 -29 14 -53t33 -39.5t55.5 -31t64 -24t76.5 -21.5q43 -10 68 -17t66.5 -20t67 -26t58.5 -32t53 -42.5 t39.5 -53.5t28 -68t8.5 -83q0 -164 -146 -265q97 -77 97 -208q0 -147 -104 -227.5t-275 -80.5q-184 0 -294.5 94t-110.5 249h189q0 -78 62.5 -123.5t156.5 -45.5q81 0 132.5 35t51.5 96q0 29 -14 52.5t-33.5 39t-57 30.5t-65.5 23.5t-78 21.5q-48 12 -77.5 19.5t-75.5 23.5 t-74.5 32.5t-62.5 43t-53.5 57.5t-32.5 74.5t-13 94.5zM290 693q0 -27 8.5 -49.5t19.5 -39t34.5 -32.5t41 -25.5t52.5 -21.5t54.5 -18t60.5 -17q56 -16 91 -28q130 52 130 164q0 28 -9 52t-20.5 41t-36 33.5t-42 26.5t-54 23t-55.5 19t-62 18q-10 3 -22 7l-27 9t-23 8 q-67 -24 -104 -68.5t-37 -101.5z" />
<glyph unicode="&#xa8;" horiz-adv-x="1228" d="M202 1275v237h250v-237h-250zM635 1275v237h250v-237h-250z" />
<glyph unicode="&#xa9;" horiz-adv-x="1710" d="M95 715q0 213 96.5 381.5t269.5 262t392 93.5t393 -94t271 -262t97 -381q0 -159 -57 -296.5t-157 -234.5t-241.5 -152t-305.5 -55q-219 0 -392 94t-269.5 262.5t-96.5 381.5zM242 715q0 -264 171.5 -431.5t439.5 -167.5q177 0 316.5 75.5t218 212.5t78.5 311t-78.5 311 t-218 212.5t-316.5 75.5q-268 0 -439.5 -167.5t-171.5 -431.5zM473 717q0 163 109 270.5t273 107.5q131 0 226.5 -74.5t125.5 -198.5h-149q-28 61 -81 94.5t-122 33.5q-99 0 -164.5 -67t-65.5 -166q0 -97 65.5 -163t164.5 -66q69 0 121 34t81 97h153q-30 -126 -127 -202 t-228 -76q-162 0 -272 108.5t-110 267.5z" />
<glyph unicode="&#xaa;" horiz-adv-x="942" d="M81 1110q0 146 99 248t241 102q141 0 238 -97l21 87h125v-682h-130l-18 85q-97 -95 -236 -95q-143 0 -241.5 102t-98.5 250zM247 1110q0 -86 55.5 -143.5t138.5 -57.5t138 57t55 144q0 86 -55 143.5t-138 57.5t-138.5 -58t-55.5 -143z" />
<glyph unicode="&#xab;" horiz-adv-x="1290" d="M70 531v31l337 416h268l-344 -431l344 -431h-268zM594 531v31l336 416h269l-344 -431l344 -431h-269z" />
<glyph unicode="&#xac;" horiz-adv-x="1220" d="M109 631v212h959v-589h-224v377h-735z" />
<glyph unicode="&#xad;" horiz-adv-x="925" d="M135 464v219h657v-219h-657z" />
<glyph unicode="&#xae;" horiz-adv-x="991" d="M89 1049q0 169 119 287t289 118q169 0 287 -118t118 -287q0 -170 -118 -288.5t-287 -118.5t-288.5 119.5t-119.5 287.5zM180 1049q0 -132 92.5 -223.5t224.5 -91.5t223 91t91 224q0 131 -91.5 222t-222.5 91q-133 0 -225 -91t-92 -222zM352 848v410h175q61 0 101 -40 t40 -101q0 -88 -76 -121l87 -148h-96l-78 136h-60v-136h-93zM445 1067h74q28 0 43.5 14t15.5 38t-16 39t-43 15h-74v-106z" />
<glyph unicode="&#xaf;" horiz-adv-x="1038" d="M199 1301v179h641v-179h-641z" />
<glyph unicode="&#xb0;" horiz-adv-x="768" d="M72 1418q0 125 90.5 214t219.5 89t222 -89t93 -214q0 -126 -92.5 -215t-222.5 -89t-220 88.5t-90 215.5zM224 1418q0 -67 45.5 -112.5t114.5 -45.5q68 0 114.5 45.5t46.5 112.5q0 66 -46.5 111.5t-114.5 45.5q-69 0 -114.5 -45.5t-45.5 -111.5z" />
<glyph unicode="&#xb1;" horiz-adv-x="1234" d="M127 17v206h983v-206h-983zM127 767v209h380v351h222v-351h379v-209h-379v-353h-222v353h-380z" />
<glyph unicode="&#xb4;" horiz-adv-x="1028" d="M205 1233l127 311h242l-194 -311h-175z" />
<glyph unicode="&#xb6;" horiz-adv-x="1310" d="M62 1001q0 187 130.5 310t338.5 123h697v-210h-186v-1354h-205v1354h-209v-1354h-204v715q-162 27 -262 140t-100 276z" />
<glyph unicode="&#xb7;" horiz-adv-x="522" d="M136 559v261h250v-261h-250z" />
<glyph unicode="&#xb8;" horiz-adv-x="794" d="M206 -347h128q45 0 72.5 23t27.5 61t-27.5 61t-72.5 23h-65l-18 20l63 237h135l-43 -154q86 -11 137.5 -63t51.5 -130q0 -90 -67.5 -146t-174.5 -56h-147v124z" />
<glyph unicode="&#xba;" horiz-adv-x="882" d="M81 1109q0 151 103.5 250.5t259.5 99.5q155 0 257.5 -99.5t102.5 -250.5t-102.5 -250.5t-257.5 -99.5q-156 0 -259.5 99.5t-103.5 250.5zM248 1109q0 -86 55 -140.5t141 -54.5t140 54.5t54 140.5t-54.5 140.5t-139.5 54.5q-86 0 -141 -54.5t-55 -140.5z" />
<glyph unicode="&#xbb;" horiz-adv-x="1290" d="M91 116l344 431l-344 431h269l336 -416v-31l-336 -415h-269zM615 116l344 431l-344 431h268l337 -416v-31l-337 -415h-268z" />
<glyph unicode="&#xbc;" horiz-adv-x="1435" d="M47 1286v148h300v-790h-172v642h-128zM126 -61l827 1556h178l-827 -1556h-178zM770 152v30l261 607h166l-213 -493h174l30 193h124v-193h72v-144h-72v-152h-159v152h-383z" />
<glyph unicode="&#xbd;" horiz-adv-x="1478" d="M47 1286v148h300v-790h-172v642h-128zM126 -61l827 1556h178l-827 -1556h-178zM850 1v38q171 197 245 289t100 140.5t26 90.5q0 44 -25.5 70.5t-66.5 26.5q-44 0 -71 -27t-27 -73v-17h-166v16q0 115 71 183.5t191 68.5q117 0 191 -68.5t74 -177.5q0 -75 -46.5 -156.5 t-186.5 -246.5h251v-157h-560z" />
<glyph unicode="&#xbe;" horiz-adv-x="1658" d="M64 891h160q3 -49 34 -79.5t79 -30.5q53 0 86 33.5t33 87.5q0 53 -35.5 84.5t-93.5 31.5h-114v31l145 238h-275v147h507v-33l-166 -259q88 -20 141 -86.5t53 -159.5q0 -116 -79.5 -191t-201.5 -75q-117 0 -193.5 73t-79.5 188zM351 -61l827 1556h178l-827 -1556h-178z M995 152v30l261 607h166l-213 -493h174l30 193h124v-193h72v-144h-72v-152h-159v152h-383z" />
<glyph unicode="&#xbf;" horiz-adv-x="1052" d="M77 27q0 59 13 110t30 85.5t48 70t53 54.5t60 49q37 30 50 41.5t40.5 39.5t38.5 48.5t21 52.5t10 67v45h228v-45q0 -59 -13.5 -110t-30 -84.5t-49.5 -69t-53.5 -53t-60.5 -48.5q-41 -31 -63 -50t-49 -51t-39 -69t-12 -83q0 -102 67.5 -164.5t170.5 -62.5 q101 0 173.5 59.5t76.5 161.5h214q-3 -102 -42.5 -185.5t-104.5 -136.5t-146.5 -81t-170.5 -28q-125 0 -228.5 50.5t-167.5 151.5t-64 235zM430 845v261h250v-261h-250z" />
<glyph unicode="&#xc0;" horiz-adv-x="1445" d="M27 0l576 1434h222l593 -1434h-256l-123 312h-640l-122 -312h-250zM435 1876h242l134 -290h-175zM481 523h476l-240 604z" />
<glyph unicode="&#xc1;" horiz-adv-x="1445" d="M27 0l576 1434h222l593 -1434h-256l-123 312h-640l-122 -312h-250zM481 523h476l-240 604zM615 1586l134 290h242l-201 -290h-175z" />
<glyph unicode="&#xc2;" horiz-adv-x="1445" d="M27 0l576 1434h222l593 -1434h-256l-123 312h-640l-122 -312h-250zM348 1586l239 290h259l240 -290h-198l-172 168l-171 -168h-197zM481 523h476l-240 604z" />
<glyph unicode="&#xc3;" horiz-adv-x="1445" d="M27 0l576 1434h222l593 -1434h-255l-124 312h-640l-122 -312h-250zM345 1591v26q0 121 57.5 192t159.5 71q41 0 78.5 -14t55.5 -27t49 -39q23 -21 36.5 -32t35.5 -20.5t45 -9.5q39 0 61.5 29.5t22.5 82.5v19h135v-23q0 -122 -58 -193t-158 -71q-45 0 -86 15.5t-63 30.5 t-54 42q-24 19 -34 27t-29 17t-35 9q-37 0 -61.5 -30.5t-24.5 -81.5v-20h-133zM481 523h476l-240 604z" />
<glyph unicode="&#xc4;" horiz-adv-x="1445" d="M27 0l576 1434h222l593 -1434h-256l-123 312h-640l-122 -312h-250zM363 1594v234h249v-234h-249zM481 523h476l-240 604zM822 1594v234h249v-234h-249z" />
<glyph unicode="&#xc5;" horiz-adv-x="1445" d="M27 0l576 1434h222l593 -1434h-256l-123 312h-640l-122 -312h-250zM456 1793q0 109 72.5 177t188.5 68q115 0 187.5 -68t72.5 -177q0 -108 -72.5 -177t-187.5 -69q-116 0 -188.5 69t-72.5 177zM481 523h476l-240 604zM590 1793q0 -53 35.5 -87.5t91.5 -34.5 q55 0 90.5 34.5t35.5 87.5q0 54 -35.5 87.5t-90.5 33.5q-57 0 -92 -33.5t-35 -87.5z" />
<glyph unicode="&#xc6;" horiz-adv-x="1863" d="M-33 0l851 1434h922v-220h-594v-375h541v-216h-541v-401h617v-222h-854v296h-492l-174 -296h-276zM541 507h368v624z" />
<glyph unicode="&#xc7;" horiz-adv-x="1585" d="M91 716q0 158 56 296.5t153 236.5t234 154t294 56q254 0 442 -146t244 -388h-238q-51 143 -170 224.5t-278 81.5q-216 0 -357 -145.5t-141 -369.5t141 -369t357 -145q164 0 284 87t169 240h239q-52 -238 -223.5 -386.5t-410.5 -165.5l-14 -52q83 -15 132 -66t49 -125 q0 -90 -73.5 -147.5t-187.5 -57.5h-143v127h141q42 0 68.5 22t26.5 58q0 35 -27 57.5t-70 22.5h-67l-18 24l34 139q-187 21 -334 120.5t-229.5 260.5t-82.5 356z" />
<glyph unicode="&#xc8;" horiz-adv-x="1138" d="M182 0v1434h833v-221h-597v-374h544v-216h-544v-401h619v-222h-855zM314 1876h242l134 -290h-175z" />
<glyph unicode="&#xc9;" horiz-adv-x="1138" d="M182 0v1434h833v-221h-597v-374h544v-216h-544v-401h619v-222h-855zM494 1586l134 290h242l-201 -290h-175z" />
<glyph unicode="&#xca;" horiz-adv-x="1138" d="M182 0v1434h833v-221h-597v-374h544v-216h-544v-401h619v-222h-855zM227 1586l239 290h259l240 -290h-198l-172 168l-170 -168h-198z" />
<glyph unicode="&#xcb;" horiz-adv-x="1138" d="M182 0v1434h833v-221h-597v-374h544v-216h-544v-401h619v-222h-855zM242 1594v234h250v-234h-250zM701 1594v234h250v-234h-250z" />
<glyph unicode="&#xcc;" horiz-adv-x="600" d="M52 1876h237l92 -290h-178zM182 0v1434h236v-1434h-236z" />
<glyph unicode="&#xcd;" horiz-adv-x="600" d="M182 0v1434h236v-1434h-236zM201 1586l92 290h232l-153 -290h-171z" />
<glyph unicode="&#xce;" horiz-adv-x="600" d="M-28 1586l212 290h230l213 -290h-189l-140 166l-140 -166h-186zM182 0v1434h236v-1434h-236z" />
<glyph unicode="&#xcf;" horiz-adv-x="600" d="M26 1594v234h225v-234h-225zM182 0v1434h236v-1434h-236zM351 1594v234h225v-234h-225z" />
<glyph unicode="&#xd0;" horiz-adv-x="1566" d="M40 619v199h202v616h506q156 0 291.5 -54t231 -148.5t150 -228t54.5 -286.5q0 -205 -93.5 -369t-259.5 -256t-374 -92h-506v619h-202zM477 219h264q217 0 355 140.5t138 357.5t-138 357t-355 140h-264v-396h362v-199h-362v-400z" />
<glyph unicode="&#xd1;" horiz-adv-x="1538" d="M182 0v1434h213l730 -1007v1007h230v-1434h-197l-745 1024v-1024h-231zM403 1591v26q0 121 58 192t160 71q41 0 78 -14t55 -26.5t49 -39.5q23 -21 36.5 -32t35.5 -20.5t45 -9.5q39 0 62 29.5t23 82.5v19h135v-23q0 -121 -58.5 -192.5t-158.5 -71.5q-45 0 -86 15.5 t-62 30.5t-54 42q-24 19 -34 27t-29 17t-35 9q-37 0 -61.5 -30.5t-24.5 -81.5v-20h-134z" />
<glyph unicode="&#xd2;" horiz-adv-x="1691" d="M90 717q0 210 98 380t271.5 267t387.5 97t387 -97t270.5 -267t97.5 -380t-97.5 -380t-270.5 -267t-387 -97t-387.5 97t-271.5 267t-98 380zM330 717q0 -145 67 -263.5t185.5 -186t264.5 -67.5q222 0 369 147.5t147 369.5t-147 369.5t-369 147.5q-146 0 -264.5 -67.5 t-185.5 -186t-67 -263.5zM564 1876h242l134 -290h-175z" />
<glyph unicode="&#xd3;" horiz-adv-x="1691" d="M90 717q0 210 98 380t271.5 267t387.5 97t387 -97t270.5 -267t97.5 -380t-97.5 -380t-270.5 -267t-387 -97t-387.5 97t-271.5 267t-98 380zM330 717q0 -145 67 -263.5t185.5 -186t264.5 -67.5q222 0 369 147.5t147 369.5t-147 369.5t-369 147.5q-146 0 -264.5 -67.5 t-185.5 -186t-67 -263.5zM744 1586l134 290h242l-201 -290h-175z" />
<glyph unicode="&#xd4;" horiz-adv-x="1691" d="M90 717q0 210 98 380t271.5 267t387.5 97t387 -97t270.5 -267t97.5 -380t-97.5 -380t-270.5 -267t-387 -97t-387.5 97t-271.5 267t-98 380zM330 717q0 -145 67 -263.5t185.5 -186t264.5 -67.5q222 0 369 147.5t147 369.5t-147 369.5t-369 147.5q-146 0 -264.5 -67.5 t-185.5 -186t-67 -263.5zM477 1586l239 290h259l240 -290h-198l-172 168l-170 -168h-198z" />
<glyph unicode="&#xd5;" horiz-adv-x="1691" d="M90 717q0 210 98 380t271.5 267t387.5 97t387 -97t270.5 -267t97.5 -380t-97.5 -380t-270.5 -267t-387 -97t-387.5 97t-271.5 267t-98 380zM330 717q0 -145 67 -263.5t185.5 -186t264.5 -67.5q222 0 369 147.5t147 369.5t-147 369.5t-369 147.5q-146 0 -264.5 -67.5 t-185.5 -186t-67 -263.5zM474 1591v26q0 121 57.5 192t159.5 71q41 0 78.5 -14t55.5 -27t49 -39q23 -21 36.5 -32t35.5 -20.5t45 -9.5q39 0 61.5 29.5t22.5 82.5v19h136v-23q0 -121 -58.5 -192.5t-158.5 -71.5q-45 0 -86 15.5t-62 30.5t-54 42q-23 18 -34 26.5t-30 17.5 t-35 9q-37 0 -61 -30.5t-24 -81.5v-20h-134z" />
<glyph unicode="&#xd6;" horiz-adv-x="1691" d="M90 717q0 210 98 380t271.5 267t387.5 97t387 -97t270.5 -267t97.5 -380t-97.5 -380t-270.5 -267t-387 -97t-387.5 97t-271.5 267t-98 380zM330 717q0 -145 67 -263.5t185.5 -186t264.5 -67.5q222 0 369 147.5t147 369.5t-147 369.5t-369 147.5q-146 0 -264.5 -67.5 t-185.5 -186t-67 -263.5zM492 1594v234h249v-234h-249zM951 1594v234h250v-234h-250z" />
<glyph unicode="&#xd7;" horiz-adv-x="1083" d="M101 394l291 296l-291 294l155 148l285 -290l287 290l153 -148l-290 -294l290 -296l-151 -147l-289 292l-288 -292z" />
<glyph unicode="&#xd8;" horiz-adv-x="1712" d="M89 717q0 156 58 293.5t158 235.5t240.5 155t299.5 57q156 0 299 -58l95 161h254l-160 -263q135 -101 211 -253.5t76 -333.5q0 -207 -97.5 -375t-270 -263.5t-385.5 -95.5q-157 0 -294 54l-95 -158h-255l160 257q-138 100 -216 253t-78 334zM329 719q0 -118 48 -220 t133 -172l521 874q-87 30 -186 30q-220 0 -368 -147t-148 -365zM689 231q86 -28 172 -28q146 0 264 66t185.5 182.5t67.5 260.5q0 117 -45 217.5t-125 170.5z" />
<glyph unicode="&#xd9;" horiz-adv-x="1484" d="M167 536v898h236v-883q0 -158 95 -255t245 -97q149 0 243.5 97t94.5 255v883h237v-898q0 -163 -75 -292t-206 -200t-294 -71t-294.5 71t-206.5 200t-75 292zM460 1876h242l134 -290h-175z" />
<glyph unicode="&#xda;" horiz-adv-x="1484" d="M167 536v898h236v-883q0 -158 95 -255t245 -97q149 0 243.5 97t94.5 255v883h237v-898q0 -163 -75 -292t-206 -200t-294 -71t-294.5 71t-206.5 200t-75 292zM640 1586l134 290h242l-201 -290h-175z" />
<glyph unicode="&#xdb;" horiz-adv-x="1484" d="M167 536v898h236v-883q0 -158 95 -255t245 -97q149 0 243.5 97t94.5 255v883h237v-898q0 -163 -75 -292t-206 -200t-294 -71t-294.5 71t-206.5 200t-75 292zM373 1586l239 290h259l240 -290h-198l-172 168l-170 -168h-198z" />
<glyph unicode="&#xdc;" horiz-adv-x="1484" d="M167 536v898h236v-883q0 -158 95 -254.5t245 -96.5q149 0 243.5 96.5t94.5 254.5v883h237v-898q0 -163 -75 -292t-206 -200t-294 -71t-294.5 71t-206.5 200t-75 292zM388 1594v234h250v-234h-250zM847 1594v234h250v-234h-250z" />
<glyph unicode="&#xdd;" horiz-adv-x="1366" d="M47 1434h254l383 -642l384 642h254l-519 -860v-574h-242v575zM582 1586l134 290h242l-201 -290h-175z" />
<glyph unicode="&#xde;" horiz-adv-x="1282" d="M182 0v1434h236v-242h294q214 0 351.5 -134t137.5 -341q0 -209 -137 -342.5t-352 -133.5h-294v-241h-236zM418 462h283q115 0 188 71t73 184t-73 183.5t-188 70.5h-283v-509z" />
<glyph unicode="&#xdf;" horiz-adv-x="1259" d="M162 0v1012q0 242 131 378t363 136q200 0 330 -116t130 -294q0 -102 -41.5 -187t-116.5 -136q105 -48 161 -141t56 -221q0 -194 -137 -312.5t-360 -118.5h-137v214h136q124 0 199.5 64t75.5 170q0 104 -75.5 168t-201.5 64h-116v203h95q113 0 184 62t71 160 q0 95 -70 155.5t-180 60.5q-126 0 -198 -80t-72 -219v-1022h-227z" />
<glyph unicode="&#xe0;" horiz-adv-x="1425" d="M81 554q0 164 75 296.5t207 207.5t294 75q120 0 224 -43t180 -122l27 139l175 -1v-1105h-183l-22 134q-76 -77 -179 -119.5t-222 -42.5q-162 0 -294 75.5t-207 209t-75 296.5zM312 554q0 -156 103 -259.5t259 -103.5t258.5 103.5t102.5 259.5t-102.5 259t-258.5 103 t-259 -103.5t-103 -258.5zM431 1544h242l127 -311h-175z" />
<glyph unicode="&#xe1;" horiz-adv-x="1425" d="M81 554q0 164 75 296.5t207 207.5t294 75q120 0 224 -43t180 -122l27 139l175 -1v-1105h-183l-22 134q-76 -77 -179 -119.5t-222 -42.5q-162 0 -294 75.5t-207 209t-75 296.5zM312 554q0 -156 103 -259.5t259 -103.5t258.5 103.5t102.5 259.5t-102.5 259t-258.5 103 t-259 -103.5t-103 -258.5zM580 1233l127 311h242l-194 -311h-175z" />
<glyph unicode="&#xe2;" horiz-adv-x="1425" d="M81 554q0 164 75 296.5t207 207.5t294 75q120 0 224 -43t180 -122l27 138h175v-1105h-183l-22 134q-76 -77 -179 -119.5t-222 -42.5q-162 0 -294 75.5t-207 209t-75 296.5zM312 554q0 -156 103 -259.5t259 -103.5t258.5 103.5t102.5 259.5t-102.5 259t-258.5 103 t-259 -103.5t-103 -258.5zM328 1233l240 311h258l242 -311h-198l-173 180l-171 -180h-198z" />
<glyph unicode="&#xe3;" horiz-adv-x="1425" d="M81 553q0 164 75 297t207 208t294 75q120 0 224 -43t180 -122l27 138h175v-1105h-183l-22 134q-76 -77 -179 -119.5t-222 -42.5q-162 0 -294 75.5t-207 208.5t-75 296zM312 553q0 -155 103 -258.5t259 -103.5t258.5 103t102.5 259t-102.5 259.5t-258.5 103.5t-259 -103.5 t-103 -259.5zM329 1249v25q0 120 57 190t157 70q41 0 78 -14t56.5 -28t48.5 -40q21 -19 35 -30t35 -20t43 -9q37 0 59.5 30.5t22.5 80.5v19h134v-23q0 -119 -57.5 -189.5t-156.5 -70.5q-43 0 -84 16t-59 29t-53 41q-2 2 -10 8t-10.5 8t-9.5 7t-10 7t-9.5 6t-10 5.5t-9.5 4 t-10.5 3.5t-10 2t-10.5 1q-36 0 -60 -30.5t-24 -78.5v-20h-132z" />
<glyph unicode="&#xe4;" horiz-adv-x="1425" d="M81 554q0 164 75 296.5t207 207.5t294 75q120 0 224 -43t180 -122l27 139l175 -1v-1105h-183l-22 134q-76 -77 -179 -119.5t-222 -42.5q-162 0 -294 75.5t-207 209t-75 296.5zM312 554q0 -156 103 -259.5t259 -103.5t258.5 103.5t102.5 259.5t-102.5 259t-258.5 103 t-259 -103.5t-103 -258.5zM353 1275v237h250v-237h-250zM786 1275v237h250v-237h-250z" />
<glyph unicode="&#xe5;" horiz-adv-x="1425" d="M81 554q0 164 75 296.5t207 207.5t294 75q120 0 224 -43t180 -122l27 138h175v-1105h-183l-22 134q-76 -77 -179 -119.5t-222 -42.5q-162 0 -294 75.5t-207 209t-75 296.5zM312 554q0 -156 103 -259.5t259 -103.5t258.5 103.5t102.5 259.5t-102.5 259t-258.5 103 t-259 -103.5t-103 -258.5zM450 1435q0 103 68 167t177 64t177.5 -64t68.5 -167q0 -102 -68.5 -167t-177.5 -65t-177 65t-68 167zM576 1435q0 -50 33.5 -82t85.5 -32t86 32t34 82q0 51 -34 83t-86 32t-85.5 -32t-33.5 -83z" />
<glyph unicode="&#xe6;" horiz-adv-x="2228" d="M81 553q0 163 75 295.5t207 207.5t294 75q226 0 380 -154l11 132h150l11 -141q153 163 382 163q159 0 287.5 -76t200 -208.5t71.5 -294.5q0 -42 -4 -77h-902q22 -132 113 -208.5t229 -76.5q99 0 177 41t121 117h239q-65 -174 -207 -274t-325 -100q-113 0 -211.5 42.5 t-170.5 120.5l-10 -140h-154l-10 130q-154 -152 -378 -152q-162 0 -294 76t-207 208.5t-75 293.5zM313 553q0 -156 101 -258.5t255 -102.5q155 0 255.5 102t100.5 259t-100.5 259t-255.5 102q-154 0 -255 -102.5t-101 -258.5zM1250 660h673q-29 125 -119 196.5t-218 71.5 q-130 0 -219 -72t-117 -196z" />
<glyph unicode="&#xe7;" horiz-adv-x="1273" d="M81 554q0 163 75.5 295.5t208.5 208t296 75.5q204 0 353 -115t195 -306h-225q-44 95 -130 149.5t-194 54.5q-149 0 -248.5 -104t-99.5 -258t100 -259t248 -105q109 0 193.5 56t129.5 157h229q-43 -184 -182 -300.5t-330 -128.5l-14 -50q86 -11 137.5 -63t51.5 -130 q0 -90 -67.5 -146t-174.5 -56h-147v124h128q45 0 72.5 23t27.5 61t-27.5 61t-72.5 23h-65l-18 20l37 139q-214 32 -350.5 191.5t-136.5 382.5z" />
<glyph unicode="&#xe8;" horiz-adv-x="1292" d="M81 553q0 163 74 296t204 208.5t290 75.5q165 0 295 -78.5t199.5 -211t69.5 -293.5q0 -32 -5 -74h-898q21 -134 112 -212t227 -78q98 0 175.5 43t121.5 119h240q-66 -175 -209 -275t-328 -100q-242 0 -405 166.5t-163 413.5zM316 660h669q-31 126 -120.5 197t-215.5 71 q-127 0 -216 -72t-117 -196zM382 1544h242l127 -311h-175z" />
<glyph unicode="&#xe9;" horiz-adv-x="1292" d="M81 553q0 163 74 296t204 208.5t290 75.5q165 0 295 -78.5t199.5 -211t69.5 -293.5q0 -32 -5 -74h-898q21 -134 112 -212t227 -78q98 0 175.5 43t121.5 119h240q-66 -175 -209 -275t-328 -100q-242 0 -405 166.5t-163 413.5zM316 660h669q-31 126 -120.5 197t-215.5 71 q-127 0 -216 -72t-117 -196zM530 1233l127 311h242l-193 -311h-176z" />
<glyph unicode="&#xea;" horiz-adv-x="1292" d="M81 553q0 163 74 296t204 208.5t290 75.5q165 0 295 -78.5t199.5 -211t69.5 -293.5q0 -32 -5 -74h-898q21 -134 112 -212t227 -78q98 0 175.5 43t121.5 119h240q-66 -175 -209 -275t-328 -100q-242 0 -405 166.5t-163 413.5zM279 1233l239 311h259l241 -311h-197 l-173 180l-171 -180h-198zM316 660h669q-31 126 -120.5 197t-215.5 71q-127 0 -216 -72t-117 -196z" />
<glyph unicode="&#xeb;" horiz-adv-x="1292" d="M81 553q0 163 74 296t204 208.5t290 75.5q165 0 295 -78.5t199.5 -211t69.5 -293.5q0 -32 -5 -74h-898q21 -134 112 -212t227 -78q98 0 175.5 43t121.5 119h240q-66 -175 -209 -275t-328 -100q-242 0 -405 166.5t-163 413.5zM304 1275v237h249v-237h-249zM316 660h669 q-31 126 -120.5 197t-215.5 71q-127 0 -216 -72t-117 -196zM737 1275v237h249v-237h-249z" />
<glyph unicode="&#xec;" d="M31 1544h237l92 -311h-177zM162 0v1106h227v-1106h-227z" />
<glyph unicode="&#xed;" d="M162 0v1106h227v-1106h-227zM177 1233l92 311h237l-151 -311h-178z" />
<glyph unicode="&#xee;" d="M-52 1233l212 311h231l212 -311h-188l-140 178l-140 -178h-187zM162 0v1106h227v-1106h-227z" />
<glyph unicode="&#xef;" d="M-1 1275v237h217v-237h-217zM162 0v1106h227v-1106h-227zM349 1274v236h217v-236h-217z" />
<glyph unicode="&#xf0;" horiz-adv-x="1323" d="M82 523q0 234 152.5 383.5t383.5 149.5q204 0 347 -126q-27 128 -102.5 226t-191.5 159l-212 -207l-94 90l174 170q-125 37 -265 37v194q240 0 423 -77l142 138l92 -92l-112 -109q194 -122 295 -340t102 -513q0 -288 -155 -459.5t-416 -171.5q-251 0 -407 152t-156 396z M302 525q0 -146 97.5 -243.5t245.5 -97.5q147 0 245 97.5t98 243.5q-1 147 -99 243.5t-244 96.5q-148 0 -245.5 -97t-97.5 -243z" />
<glyph unicode="&#xf1;" horiz-adv-x="1314" d="M162 0v1106h158l45 -154q64 85 163 132t219 47q192 0 306 -129t114 -336v-666h-227v620q0 151 -64.5 229t-189.5 78q-130 0 -213.5 -94.5t-83.5 -240.5v-592h-227zM309 1249v25q0 120 57 190t157 70q41 0 78 -14t56.5 -28t48.5 -40q21 -19 35 -30t35 -20t43 -9 q37 0 59.5 30.5t22.5 80.5v19h134v-23q0 -119 -57.5 -189.5t-156.5 -70.5q-43 0 -84 16t-59 29t-53 41q-2 2 -10 8t-10.5 8t-9.5 7t-10 7t-9.5 6t-10 5.5t-9.5 4t-10.5 3.5t-10 2t-10.5 1q-36 0 -60 -30.5t-24 -78.5v-20h-132z" />
<glyph unicode="&#xf2;" horiz-adv-x="1343" d="M81 553q0 165 77 297.5t212 207.5t302 75t302 -75t212 -208t77 -297t-77 -296.5t-212 -208t-302 -75.5t-302 75.5t-212 208t-77 296.5zM312 553q0 -159 101.5 -261t258.5 -102t258.5 102t101.5 261t-101.5 261t-258.5 102t-258.5 -102t-101.5 -261zM407 1544h242 l127 -311h-175z" />
<glyph unicode="&#xf3;" horiz-adv-x="1343" d="M81 553q0 165 77 297.5t212 207.5t302 75t302 -75t212 -208t77 -297t-77 -296.5t-212 -208t-302 -75.5t-302 75.5t-212 208t-77 296.5zM312 553q0 -159 101.5 -261t258.5 -102t258.5 102t101.5 261t-101.5 261t-258.5 102t-258.5 -102t-101.5 -261zM556 1233l127 311h242 l-194 -311h-175z" />
<glyph unicode="&#xf4;" horiz-adv-x="1343" d="M81 553q0 165 77 297.5t212 207.5t302 75t302 -75t212 -208t77 -297t-77 -296.5t-212 -208t-302 -75.5t-302 75.5t-212 208t-77 296.5zM304 1233l240 311h258l242 -311h-198l-173 180l-171 -180h-198zM312 553q0 -159 101.5 -261t258.5 -102t258.5 102t101.5 261 t-101.5 261t-258.5 102t-258.5 -102t-101.5 -261z" />
<glyph unicode="&#xf5;" horiz-adv-x="1343" d="M81 553q0 165 77 297.5t212 207.5t302 75t302 -75t212 -208t77 -297t-77 -296.5t-212 -208t-302 -75.5t-302 75.5t-212 208t-77 296.5zM304 1249v25q0 119 57.5 189.5t157.5 70.5q41 0 78 -14t56.5 -28t48.5 -40q22 -20 35 -30t34 -19.5t43 -9.5q38 0 60.5 30.5 t22.5 80.5v19h134v-23q0 -119 -57.5 -189.5t-156.5 -70.5q-43 0 -83.5 15.5t-59.5 29t-53 40.5q-2 2 -14 11.5t-15 11.5t-13 9t-15 9t-13 6t-15 5t-15 1q-36 0 -60 -30.5t-24 -78.5v-20h-133zM312 553q0 -159 101.5 -261t258.5 -102t258.5 102t101.5 261t-101.5 261 t-258.5 102t-258.5 -102t-101.5 -261z" />
<glyph unicode="&#xf6;" horiz-adv-x="1343" d="M81 553q0 165 77 297.5t212 207.5t302 75t302 -75t212 -208t77 -297t-77 -296.5t-212 -208t-302 -75.5t-302 75.5t-212 208t-77 296.5zM312 553q0 -159 101.5 -261t258.5 -102t258.5 102t101.5 261t-101.5 261t-258.5 102t-258.5 -102t-101.5 -261zM329 1275v237h250 v-237h-250zM762 1275v237h250v-237h-250z" />
<glyph unicode="&#xf7;" horiz-adv-x="1187" d="M102 586v205h983v-205h-983zM471 308q0 51 35.5 86t87.5 35q51 0 87 -35t36 -86q0 -52 -35.5 -87.5t-87.5 -35.5t-87.5 35.5t-35.5 87.5zM471 1072q0 50 35.5 85.5t87.5 35.5t87.5 -35.5t35.5 -85.5q0 -52 -35.5 -87.5t-87.5 -35.5t-87.5 35.5t-35.5 87.5z" />
<glyph unicode="&#xf8;" horiz-adv-x="1357" d="M80 555q0 162 76 293.5t210 206.5t298 75q104 0 200 -34l72 135h209l-112 -210q114 -78 178.5 -200t64.5 -270q0 -121 -44.5 -227.5t-121 -182.5t-184 -120t-230.5 -44q-113 0 -216 39l-78 -141h-209l122 217q-110 77 -172.5 197.5t-62.5 265.5zM300 555q0 -180 121 -282 l349 637q-50 15 -106 15q-160 0 -262 -104.5t-102 -265.5zM578 201q57 -19 118 -19q157 0 259 104t102 265q0 181 -129 285z" />
<glyph unicode="&#xf9;" horiz-adv-x="1294" d="M145 467v639h227v-607q0 -144 74 -226.5t202 -82.5t201.5 83t73.5 226v607h227v-639q0 -224 -137 -359t-365 -135t-365.5 135t-137.5 359zM384 1544h242l127 -311h-176z" />
<glyph unicode="&#xfa;" horiz-adv-x="1294" d="M145 467v639h227v-607q0 -144 74 -226.5t202 -82.5t201.5 83t73.5 226v607h227v-639q0 -224 -137 -359t-365 -135t-365.5 135t-137.5 359zM532 1233l127 311h242l-194 -311h-175z" />
<glyph unicode="&#xfb;" horiz-adv-x="1294" d="M145 467v639h227v-607q0 -144 74 -226.5t202 -82.5t201.5 83t73.5 226v607h227v-639q0 -224 -137 -359t-365 -135t-365.5 135t-137.5 359zM281 1233l239 311h259l241 -311h-198l-172 180l-172 -180h-197z" />
<glyph unicode="&#xfc;" horiz-adv-x="1294" d="M145 467v639h227v-607q0 -144 74 -226.5t202 -82.5t201.5 83t73.5 226v607h227v-639q0 -224 -137 -359t-365 -135t-365.5 135t-137.5 359zM306 1275v237h249v-237h-249zM738 1275v237h250v-237h-250z" />
<glyph unicode="&#xfd;" horiz-adv-x="1214" d="M23 1106h247l351 -771l330 771h242l-508 -1126q-95 -211 -194 -293.5t-266 -82.5h-113v204h95q108 0 159 42.5t113 177.5l25 52zM496 1233l127 311h242l-193 -311h-176z" />
<glyph unicode="&#xfe;" horiz-adv-x="1413" d="M162 -396v1895h227v-502q153 134 369 134q163 0 294.5 -75t205 -207.5t73.5 -295.5q0 -123 -43.5 -230.5t-118.5 -184.5t-182 -121.5t-229 -44.5q-214 0 -369 136v-504h-227zM378 553q0 -156 103 -259.5t259 -103.5t258.5 103.5t102.5 259.5q0 155 -102.5 258t-258.5 103 t-259 -103t-103 -258z" />
<glyph unicode="&#xff;" horiz-adv-x="1214" d="M23 1106h247l351 -771l330 771h242l-508 -1126q-95 -211 -194 -293.5t-266 -82.5h-113v204h95q108 0 159 42.5t113 177.5l25 52zM270 1275v237h249v-237h-249zM703 1275v237h249v-237h-249z" />
<glyph unicode="&#x100;" horiz-adv-x="1445" d="M27 0l576 1434h222l593 -1434h-256l-123 312h-640l-122 -312h-250zM397 1635v194h641v-194h-641zM481 523h476l-240 604z" />
<glyph unicode="&#x101;" horiz-adv-x="1425" d="M81 554q0 164 75 296.5t207 207.5t294 75q120 0 224 -43t180 -122l27 139l175 -1v-1105h-183l-22 134q-76 -77 -179 -119.5t-222 -42.5q-162 0 -294 75.5t-207 209t-75 296.5zM312 554q0 -156 103 -259.5t259 -103.5t258.5 103.5t102.5 259.5t-102.5 259t-258.5 103 t-259 -103.5t-103 -258.5zM374 1301v179h641v-179h-641z" />
<glyph unicode="&#x102;" horiz-adv-x="1445" d="M27 0l576 1434h222l593 -1434h-256l-123 312h-640l-122 -312h-250zM387 1877h176v-8q0 -69 41.5 -107.5t112.5 -38.5q70 0 110 38.5t40 107.5v8h181q0 -139 -91 -222t-240 -83t-239.5 83t-90.5 222zM481 523h476l-240 604z" />
<glyph unicode="&#x103;" horiz-adv-x="1425" d="M81 554q0 164 74.5 296.5t206.5 207.5t294 75q120 0 224.5 -43t180.5 -122l27 139l175 -1v-1105h-183l-22 134q-76 -77 -179.5 -119.5t-222.5 -42.5q-121 0 -228 44.5t-183 121.5t-120 185t-44 230zM312 554q0 -156 103 -259.5t259 -103.5t258.5 103.5t102.5 259.5 t-102.5 259t-258.5 103t-259 -103.5t-103 -258.5zM352 1544h177v-7q0 -79 45 -123t121 -44t119 44t43 123v7h181q0 -149 -94 -237t-249 -88t-249 88t-94 237z" />
<glyph unicode="&#x104;" horiz-adv-x="1443" d="M27 0l576 1434h221l587 -1420l10 -14q-142 -23 -214 -76t-72 -128q0 -51 38.5 -81.5t105.5 -30.5q62 0 107 22v-130q-78 -46 -171 -46q-113 0 -183.5 59.5t-70.5 153.5q0 83 50.5 158.5t138.5 127.5l-112 283h-639l-122 -312h-250zM480 523h476l-240 604z" />
<glyph unicode="&#x105;" horiz-adv-x="1425" d="M81 554q0 164 75 296.5t207 207.5t294 75q120 0 224 -43t180 -122l27 139h175v-1106v-1q-102 -28 -160.5 -82t-58.5 -119q0 -55 38.5 -85t100.5 -30q56 0 112 22v-127q-79 -48 -176 -48q-106 0 -177.5 57t-71.5 155q0 93 53 171.5t149 135.5l-14 85q-76 -77 -179 -119.5 t-222 -42.5q-162 0 -294 75.5t-207 208.5t-75 297zM312 554q0 -156 103 -259.5t259 -103.5t258.5 103.5t102.5 259.5t-102.5 259t-258.5 103t-259 -103.5t-103 -258.5z" />
<glyph unicode="&#x106;" horiz-adv-x="1585" d="M91 716q0 158 56 296.5t153 236.5t234 154t294 56q254 0 442 -146t244 -388h-238q-51 143 -170 224.5t-278 81.5q-216 0 -357 -145.5t-141 -369.5t141 -369t357 -145q164 0 284 87t169 240h239q-56 -253 -244.5 -403.5t-447.5 -150.5q-157 0 -294 56t-234 153.5 t-153 235.5t-56 296zM716 1586l134 290h242l-201 -290h-175z" />
<glyph unicode="&#x107;" horiz-adv-x="1273" d="M81 554q0 163 75.5 295.5t208.5 208t296 75.5q204 0 353 -115t195 -306h-225q-44 95 -130 149.5t-194 54.5q-149 0 -248.5 -104t-99.5 -258t100 -259t248 -105q109 0 193.5 56t129.5 157h229q-46 -194 -197 -312t-355 -118q-162 0 -295 76t-208.5 209t-75.5 296z M543 1233l127 311h242l-194 -311h-175z" />
<glyph unicode="&#x108;" horiz-adv-x="1585" d="M91 716q0 158 56 296.5t153 236.5t234 154t294 56q254 0 442 -146t244 -388h-238q-51 143 -170 224.5t-278 81.5q-216 0 -357 -145.5t-141 -369.5t141 -369t357 -145q164 0 284 87t169 240h239q-56 -253 -244.5 -403.5t-447.5 -150.5q-157 0 -294 56t-234 153.5 t-153 235.5t-56 296zM449 1586l240 290h258l240 -290h-198l-172 168l-170 -168h-198z" />
<glyph unicode="&#x109;" horiz-adv-x="1273" d="M81 554q0 163 75.5 295.5t208.5 208t296 75.5q204 0 353 -115t195 -306h-225q-44 95 -130 149.5t-194 54.5q-149 0 -248.5 -104t-99.5 -258t100 -259t248 -105q109 0 193.5 56t129.5 157h229q-46 -194 -197 -312t-355 -118q-162 0 -295 76t-208.5 209t-75.5 296z M292 1233l239 311h259l241 -311h-198l-172 180l-171 -180h-198z" />
<glyph unicode="&#x10a;" horiz-adv-x="1585" d="M91 716q0 158 56 296.5t153 236.5t234 154t294 56q254 0 442 -146t244 -388h-238q-51 143 -170 224.5t-278 81.5q-216 0 -357 -145.5t-141 -369.5t141 -369t357 -145q164 0 284 87t169 240h239q-56 -253 -244.5 -403.5t-447.5 -150.5q-157 0 -294 56t-234 153.5 t-153 235.5t-56 296zM695 1595v233h247v-233h-247z" />
<glyph unicode="&#x10b;" horiz-adv-x="1273" d="M81 554q0 163 75.5 295.5t208.5 208t296 75.5q204 0 353 -115t195 -306h-225q-44 95 -130 149.5t-194 54.5q-149 0 -248.5 -104t-99.5 -258t100 -259t248 -105q109 0 193.5 56t129.5 157h229q-46 -194 -197 -312t-355 -118q-162 0 -295 76t-208.5 209t-75.5 296z M541 1275v237h235v-237h-235z" />
<glyph unicode="&#x10c;" horiz-adv-x="1585" d="M91 716q0 158 56 296.5t153 236.5t234 154t294 56q254 0 442 -146t244 -388h-238q-51 143 -170 224.5t-278 81.5q-216 0 -357 -145.5t-141 -369.5t141 -369t357 -145q164 0 284 87t169 240h239q-56 -253 -244.5 -403.5t-447.5 -150.5q-157 0 -294 56t-234 153.5 t-153 235.5t-56 296zM449 1876h198l170 -168l172 168h198l-240 -290h-258z" />
<glyph unicode="&#x10d;" horiz-adv-x="1273" d="M81 554q0 163 75.5 295.5t208.5 208t296 75.5q204 0 353 -115t195 -306h-225q-44 95 -130 149.5t-194 54.5q-149 0 -248.5 -104t-99.5 -258t100 -259t248 -105q109 0 193.5 56t129.5 157h229q-46 -194 -197 -312t-355 -118q-162 0 -295 76t-208.5 209t-75.5 296z M289 1544h198l171 -181l173 181h198l-242 -311h-258z" />
<glyph unicode="&#x10e;" horiz-adv-x="1507" d="M182 0v1434h506q156 0 291.5 -54t231 -148.5t150 -228t54.5 -286.5q0 -205 -93.5 -369t-259.5 -256t-374 -92h-506zM235 1876h197l171 -168l172 168h198l-240 -290h-259zM418 219h263q217 0 355 140.5t138 357.5t-138 357t-355 140h-263v-995z" />
<glyph unicode="&#x10f;" horiz-adv-x="1449" d="M81 553q0 250 162.5 415t412.5 165q210 0 364 -129v498h227v-1502h-172l-29 125q-159 -153 -390 -153q-249 0 -412 166t-163 415zM313 553q0 -156 102 -259.5t258 -103.5t259.5 104t103.5 259t-103.5 259t-259.5 104t-258 -103.5t-102 -259.5zM1351 1307v195h218v-179 q0 -92 -58 -158t-151 -77v99q48 7 74.5 39t26.5 81h-110z" />
<glyph unicode="&#x110;" horiz-adv-x="1566" d="M40 619v199h202v616h506q156 0 291.5 -54t231 -148.5t150 -228t54.5 -286.5q0 -205 -93.5 -369t-259.5 -256t-374 -92h-506v619h-202zM477 219h264q217 0 355 140.5t138 357.5t-138 357t-355 140h-264v-396h362v-199h-362v-400z" />
<glyph unicode="&#x111;" horiz-adv-x="1409" d="M81 553q0 250 162.5 415t412.5 165q210 0 364 -129v207h-390v172h390v119h227v-119h156v-172h-156v-1211h-172l-29 125q-159 -153 -390 -153q-249 0 -412 166t-163 415zM313 553q0 -156 102 -259.5t258 -103.5t259.5 104t103.5 259t-103.5 259t-259.5 104t-258 -103.5 t-102 -259.5z" />
<glyph unicode="&#x112;" horiz-adv-x="1138" d="M182 0v1434h833v-221h-597v-374h544v-216h-544v-401h619v-222h-855zM277 1635v194h641v-194h-641z" />
<glyph unicode="&#x113;" horiz-adv-x="1292" d="M81 553q0 163 74 296t204 208.5t290 75.5q165 0 295 -78.5t199.5 -211t69.5 -293.5q0 -32 -5 -74h-898q21 -134 112 -212t227 -78q98 0 175.5 43t121.5 119h240q-66 -175 -209 -275t-328 -100q-242 0 -405 166.5t-163 413.5zM316 660h669q-31 126 -120.5 197t-215.5 71 q-127 0 -216 -72t-117 -196zM324 1301v179h641v-179h-641z" />
<glyph unicode="&#x114;" horiz-adv-x="1138" d="M182 0v1434h833v-221h-597v-374h544v-216h-544v-401h619v-222h-855zM266 1877h177v-8q0 -69 41 -107.5t112 -38.5q70 0 110.5 38.5t40.5 107.5v8h181q0 -139 -91 -222t-240 -83t-240 83t-91 222z" />
<glyph unicode="&#x115;" horiz-adv-x="1292" d="M81 553q0 163 74 296t204 208.5t290 75.5q165 0 295 -78.5t199.5 -211t69.5 -293.5q0 -32 -5 -74h-898q21 -134 112 -212t227 -78q98 0 175.5 43t121.5 119h240q-66 -175 -209 -275t-328 -100q-242 0 -405 166.5t-163 413.5zM303 1544h176v-7q0 -78 45.5 -122.5 t121.5 -44.5t119 44t43 123v7h181q0 -149 -94 -237t-249 -88t-249 88t-94 237zM316 660h669q-31 126 -120.5 197t-215.5 71q-127 0 -216 -72t-117 -196z" />
<glyph unicode="&#x116;" horiz-adv-x="1138" d="M182 0v1434h833v-221h-597v-374h544v-216h-544v-401h619v-222h-855zM473 1595v233h247v-233h-247z" />
<glyph unicode="&#x117;" horiz-adv-x="1292" d="M81 553q0 163 74 296t204 208.5t290 75.5q165 0 295 -78.5t199.5 -211t69.5 -293.5q0 -32 -5 -74h-898q21 -134 112 -212t227 -78q98 0 175.5 43t121.5 119h240q-66 -175 -209 -275t-328 -100q-242 0 -405 166.5t-163 413.5zM316 660h669q-31 126 -120.5 197t-215.5 71 q-127 0 -216 -72t-117 -196zM529 1275v237h234v-237h-234z" />
<glyph unicode="&#x118;" horiz-adv-x="1138" d="M182 0v1434h833v-221h-597v-374h544v-216h-544v-401h619v-222q-106 -19 -171.5 -75.5t-65.5 -125.5q0 -53 37.5 -84t101.5 -31q60 0 113 22v-127q-79 -48 -176 -48q-110 0 -179.5 59t-69.5 153q0 75 38.5 141.5t107.5 115.5h-591z" />
<glyph unicode="&#x119;" horiz-adv-x="1294" d="M82 555q0 120 43.5 226.5t119 183t182 120.5t226.5 44q162 0 292 -77.5t200.5 -206.5t70.5 -283q0 -36 -7 -87h-900q22 -132 114.5 -208.5t229.5 -76.5q98 0 174 41.5t121 116.5h239q-70 -194 -282 -318q-83 -49 -128.5 -108t-45.5 -119q0 -57 37 -88t101 -31 q61 0 114 23v-126q-76 -50 -175 -50q-113 0 -181 58.5t-68 150.5q0 59 30.5 122.5t83.5 114.5h-20q-160 0 -291 75.5t-205.5 208t-74.5 294.5zM315 662h671q-30 122 -118.5 192t-214.5 70q-130 0 -222 -71.5t-116 -190.5z" />
<glyph unicode="&#x11a;" horiz-adv-x="1138" d="M182 0v1434h833v-221h-597v-374h544v-216h-544v-401h619v-222h-855zM227 1876h198l170 -168l172 168h198l-240 -290h-259z" />
<glyph unicode="&#x11b;" horiz-adv-x="1292" d="M81 553q0 163 74 296t204 208.5t290 75.5q165 0 295 -78.5t199.5 -211t69.5 -293.5q0 -32 -5 -74h-898q21 -134 112 -212t227 -78q98 0 176 43t122 119h239q-66 -175 -209 -275t-328 -100q-242 0 -405 166.5t-163 413.5zM276 1544h198l171 -181l173 181h198l-242 -311 h-258zM316 660h669q-31 126 -120.5 197t-215.5 71q-127 0 -216 -72t-117 -196z" />
<glyph unicode="&#x11c;" horiz-adv-x="1634" d="M91 716q0 158 55 296t151.5 236t232 154.5t290.5 56.5q262 0 460 -149t247 -383h-243q-46 138 -171.5 221t-287.5 83q-218 0 -356.5 -144t-138.5 -371q0 -229 137 -372t358 -143q172 0 299.5 89t168.5 235h-511v203h766q-3 -217 -95 -389t-256 -269t-372 -97 q-156 0 -292.5 56t-233.5 154t-152.5 236.5t-55.5 296.5zM453 1586l240 290h258l240 -290h-198l-172 168l-170 -168h-198z" />
<glyph unicode="&#x11d;" horiz-adv-x="1378" d="M81 582q0 152 71.5 278.5t197 199.5t277.5 73q119 0 223.5 -45t180.5 -125l36 143h149v-961q0 -265 -147.5 -416.5t-404.5 -151.5q-212 0 -355.5 103.5t-185.5 285.5h227q31 -88 117.5 -138t194.5 -50q146 0 238.5 90.5t92.5 245.5v51q-154 -133 -366 -133 q-152 0 -277 72.5t-197 198.5t-72 279zM289 1233l240 311h258l242 -311h-198l-173 180l-171 -180h-198zM312 582q0 -146 97 -242.5t244 -96.5t243.5 96.5t96.5 242.5q0 147 -96 243t-244 96q-147 0 -244 -96.5t-97 -242.5z" />
<glyph unicode="&#x11e;" horiz-adv-x="1634" d="M91 716q0 158 55 296t151.5 236t232 154.5t290.5 56.5q262 0 460 -149t247 -383h-243q-46 138 -171.5 221t-287.5 83q-218 0 -356.5 -144t-138.5 -371q0 -229 137 -372t358 -143q172 0 299.5 89t168.5 235h-511v203h766q-3 -217 -95 -389t-256 -269t-372 -97 q-156 0 -292.5 56t-233.5 154t-152.5 236.5t-55.5 296.5zM493 1877h176v-8q0 -69 41 -107.5t112 -38.5q70 0 110.5 38.5t40.5 107.5v8h181q0 -139 -91 -222t-240 -83t-239.5 83t-90.5 222z" />
<glyph unicode="&#x11f;" horiz-adv-x="1378" d="M81 582q0 152 71.5 278.5t197 199.5t277.5 73q119 0 223.5 -45t180.5 -125l36 143h149v-961q0 -265 -147.5 -416.5t-404.5 -151.5q-212 0 -355.5 103.5t-185.5 285.5h227q31 -88 117.5 -138t194.5 -50q146 0 238.5 90.5t92.5 245.5v51q-154 -133 -366 -133 q-152 0 -277 72.5t-197 198.5t-72 279zM312 582q0 -146 97 -242.5t244 -96.5t243 96t96 243t-95.5 243t-243.5 96q-147 0 -244 -96.5t-97 -242.5zM313 1544h177v-7q0 -79 45 -123t121 -44t119 44t43 123v7h181q0 -149 -94 -237t-249 -88t-249 88t-94 237z" />
<glyph unicode="&#x120;" horiz-adv-x="1634" d="M91 716q0 158 55 296t151.5 236t232 154.5t290.5 56.5q262 0 460 -149t247 -383h-243q-46 138 -171.5 221t-287.5 83q-218 0 -356.5 -144t-138.5 -371q0 -229 137 -372t358 -143q172 0 299.5 89t168.5 235h-511v203h766q-3 -217 -95 -389t-256 -269t-372 -97 q-156 0 -292.5 56t-233.5 154t-152.5 236.5t-55.5 296.5zM699 1595v233h248v-233h-248z" />
<glyph unicode="&#x121;" horiz-adv-x="1378" d="M81 582q0 152 71.5 278.5t197 199.5t277.5 73q119 0 223.5 -45t180.5 -125l36 143h149v-961q0 -265 -147.5 -416.5t-404.5 -151.5q-212 0 -355.5 103.5t-185.5 285.5h227q31 -88 117.5 -138t194.5 -50q146 0 238.5 90.5t92.5 245.5v51q-154 -133 -366 -133 q-152 0 -277 72.5t-197 198.5t-72 279zM312 582q0 -146 97 -242.5t244 -96.5t243 96t96 243t-95.5 243t-243.5 96q-147 0 -244 -96.5t-97 -242.5zM539 1275v237h235v-237h-235z" />
<glyph unicode="&#x122;" horiz-adv-x="1634" d="M91 716q0 158 55 296t151.5 236t232 154.5t290.5 56.5q262 0 460 -149t247 -383h-243q-46 138 -171.5 221t-287.5 83q-218 0 -356.5 -144t-138.5 -371q0 -229 137 -372t358 -143q172 0 299.5 89t168.5 235h-511v203h766q-3 -217 -95 -389t-256 -269t-372 -97 q-156 0 -292.5 56t-233.5 154t-152.5 236.5t-55.5 296.5zM721 -101h219v-178q0 -92 -58.5 -158.5t-151.5 -77.5v99q48 7 75 39t27 81h-111v195z" />
<glyph unicode="&#x123;" horiz-adv-x="1378" d="M81 582q0 152 71.5 278.5t197 199.5t277.5 73q119 0 223.5 -45t180.5 -125l36 143h149v-961q0 -265 -147.5 -416.5t-404.5 -151.5q-212 0 -355.5 103.5t-185.5 285.5h227q31 -88 117.5 -138t194.5 -50q146 0 238.5 90.5t92.5 245.5v51q-154 -133 -366 -133 q-152 0 -277 72.5t-197 198.5t-72 279zM312 582q0 -146 97 -242.5t244 -96.5t243 96t96 243t-95.5 243t-243.5 96q-147 0 -244 -96.5t-97 -242.5zM546 1270v179q0 92 58 158t151 77v-99q-48 -7 -74.5 -39t-27.5 -81h112v-195h-219z" />
<glyph unicode="&#x124;" horiz-adv-x="1490" d="M182 0v1434h236v-586h655v586h236v-1434h-236v625h-655v-625h-236zM381 1586l239 290h259l240 -290h-198l-172 168l-170 -168h-198z" />
<glyph unicode="&#x125;" horiz-adv-x="1314" d="M-94 1634l239 291h259l240 -291h-198l-172 168l-170 -168h-198zM162 0v1502h227v-522q65 72 158 111.5t202 39.5q193 0 305.5 -125.5t112.5 -339.5v-666h-227v620q0 151 -64 229t-190 78q-129 0 -213 -94t-84 -241v-592h-227z" />
<glyph unicode="&#x126;" horiz-adv-x="1538" d="M53 1085v182h152v167h235v-167h656v167h235v-167h156v-182h-156v-1085h-235v627h-656v-627h-235v1085h-152zM440 846h656v239h-656v-239z" />
<glyph unicode="&#x127;" horiz-adv-x="1314" d="M-26 1211v171h188v120h227v-120h357v-171h-357v-231q65 72 158 111.5t202 39.5q193 0 305.5 -125t112.5 -339v-667h-227v620q0 151 -64 229t-190 78q-129 0 -213 -94t-84 -241v-592h-227v1211h-188z" />
<glyph unicode="&#x128;" horiz-adv-x="600" d="M-46 1591v26q0 121 52.5 192t147.5 71q42 0 78 -13.5t56 -28t48 -40.5q24 -22 35 -31t33 -19t44 -10q34 0 53.5 30.5t19.5 81.5v19h129v-23q0 -122 -53 -193t-146 -71q-40 0 -79.5 15t-60 29.5t-53.5 41.5q-64 55 -102 55q-32 0 -53 -31.5t-21 -80.5v-20h-128zM182 0 v1434h236v-1434h-236z" />
<glyph unicode="&#x129;" d="M-61 1253v37q0 118 49.5 185t146.5 67q40 0 76 -15.5t53.5 -29.5t46.5 -42q20 -20 31.5 -30t29.5 -19.5t35 -9.5q30 0 47.5 23.5t17.5 64.5v39h138v-35q0 -120 -50 -186t-143 -66q-38 0 -74.5 15.5t-54.5 30t-50 42.5q-48 42 -69 50q-13 5 -25 5q-31 0 -48.5 -22.5 t-17.5 -61.5v-42h-139zM162 0v1106h227v-1106h-227z" />
<glyph unicode="&#x12a;" horiz-adv-x="600" d="M47 1635v197h508v-197h-508zM182 0v1434h236v-1434h-236z" />
<glyph unicode="&#x12b;" d="M17 1301v179h518v-179h-518zM162 0v1106h227v-1106h-227z" />
<glyph unicode="&#x12c;" horiz-adv-x="600" d="M-8 1877h176v-8q0 -69 36 -107.5t97 -38.5t95.5 38.5t34.5 107.5v8h181q0 -139 -85.5 -222t-225.5 -83t-224.5 83t-84.5 222zM182 0v1434h236v-1434h-236z" />
<glyph unicode="&#x12d;" d="M-45 1544h177v-7q0 -79 39.5 -123t106.5 -44q66 0 103.5 44t37.5 123v7h181q0 -148 -88 -236.5t-234 -88.5t-234.5 88.5t-88.5 236.5zM162 0v1106h227v-1106h-227z" />
<glyph unicode="&#x12e;" horiz-adv-x="600" d="M71 -257q0 72 35 138.5t98 118.5h-22v1434h236v-1434q-174 -79 -174 -201q0 -53 37.5 -84t102.5 -31q58 0 111 22v-127q-79 -48 -176 -48q-110 0 -179 59t-69 153z" />
<glyph unicode="&#x12f;" d="M-2 -257q0 149 164 264v1099h227v-1070l2 -36q-102 -28 -160.5 -82t-58.5 -119q0 -55 38 -85t100 -30q57 0 113 22v-127q-79 -48 -176 -48q-106 0 -177.5 57t-71.5 155zM158 1275v237h235v-237h-235z" />
<glyph unicode="&#x130;" horiz-adv-x="600" d="M176 1595v233h247v-233h-247zM182 0v1434h236v-1434h-236z" />
<glyph unicode="&#x131;" d="M162 0v1106h227v-1106h-227z" />
<glyph unicode="&#x132;" horiz-adv-x="1748" d="M182 0v1434h236v-1434h-236zM568 481v39h233v-28q0 -130 77.5 -211.5t199.5 -81.5q118 0 194.5 82t76.5 211v942h232v-953q0 -223 -141 -365.5t-362 -142.5t-365.5 143.5t-144.5 364.5z" />
<glyph unicode="&#x133;" horiz-adv-x="1204" d="M158 1277v235h235v-235h-235zM162 0v1106h227v-1106h-227zM540 -188h79q95 0 145.5 50.5t50.5 145.5v1098h227v-1115q0 -173 -107.5 -280t-281.5 -107h-113v208zM812 1277v235h235v-235h-235z" />
<glyph unicode="&#x134;" horiz-adv-x="1232" d="M52 481v39h233v-28q0 -130 77.5 -211.5t199.5 -81.5q118 0 194 82t76 211v942h233v-953q0 -223 -141 -365.5t-362 -142.5t-365.5 143.5t-144.5 364.5zM614 1586l211 290h231l212 -290h-188l-140 166l-140 -166h-186z" />
<glyph unicode="&#x135;" horiz-adv-x="575" d="M-86 -174h76q95 0 146 50.5t51 144.5v1085h227v-1099q0 -174 -108 -281.5t-281 -107.5h-111v208zM-31 1233l211 311h231l212 -311h-188l-140 178l-140 -178h-186z" />
<glyph unicode="&#x136;" horiz-adv-x="1320" d="M182 0v1434h236v-586h167l408 586h289l-489 -692l534 -742h-292l-449 629h-168v-629h-236zM589 -101h218v-178q0 -92 -58.5 -158.5t-150.5 -77.5v99q48 7 74.5 39t26.5 81h-110v195z" />
<glyph unicode="&#x137;" horiz-adv-x="1163" d="M185 0v1502h227v-824h140l298 428h270l-375 -531l414 -575h-278l-331 472h-138v-472h-227zM501 -101h218v-178q0 -92 -58.5 -158.5t-150.5 -77.5v99q48 7 74.5 39t26.5 81h-110v195z" />
<glyph unicode="&#x138;" horiz-adv-x="1134" d="M162 0v1106h227v-428h140l299 428h269l-374 -530l415 -576h-279l-332 472h-138v-472h-227z" />
<glyph unicode="&#x139;" horiz-adv-x="1056" d="M182 0v1434h236v-1215h596v-219h-832zM216 1586l134 290h242l-201 -290h-175z" />
<glyph unicode="&#x13a;" d="M162 0v1502h227v-1502h-227zM176 1654l134 291h242l-201 -291h-175z" />
<glyph unicode="&#x13b;" horiz-adv-x="1056" d="M182 0v1434h236v-1215h596v-219h-832zM485 -101h219v-178q0 -92 -58.5 -158.5t-151.5 -77.5v99q48 7 75 39t27 81h-111v195z" />
<glyph unicode="&#x13c;" d="M162 0v1502h227v-1502h-227zM165 -101h219v-178q0 -92 -58.5 -158.5t-150.5 -77.5v99q48 7 74.5 39t26.5 81h-111v195z" />
<glyph unicode="&#x13d;" horiz-adv-x="1056" d="M182 0v1434h236v-1215h596v-219h-832zM726 1307v195h219v-179q0 -92 -58 -158t-151 -77v99q48 7 74.5 39t26.5 81h-111z" />
<glyph unicode="&#x13e;" d="M162 0v1502h227v-1502h-227zM503 1307v195h219v-179q0 -92 -58 -158t-151 -77v99q48 7 74.5 39t26.5 81h-111z" />
<glyph unicode="&#x13f;" horiz-adv-x="1067" d="M182 0v1434h236v-1215h596v-219h-832zM669 564v261h250v-261h-250z" />
<glyph unicode="&#x140;" horiz-adv-x="780" d="M162 0v1502h227v-1502h-227zM544 606v261h250v-261h-250z" />
<glyph unicode="&#x141;" horiz-adv-x="1056" d="M17 406v202l165 85v741h236v-619l389 201v-208l-389 -198v-391h596v-219h-832v490z" />
<glyph unicode="&#x142;" d="M-27 570v209l189 107v616h227v-487l189 106v-209l-189 -107v-805h-227v677z" />
<glyph unicode="&#x143;" horiz-adv-x="1538" d="M182 0v1434h213l730 -1007v1007h230v-1434h-197l-745 1024v-1024h-231zM673 1586l134 290h242l-201 -290h-175z" />
<glyph unicode="&#x144;" horiz-adv-x="1314" d="M162 0v1106h158l45 -154q64 85 163 132t219 47q192 0 306 -129t114 -336v-666h-227v620q0 151 -64.5 229t-189.5 78q-130 0 -213.5 -94.5t-83.5 -240.5v-592h-227zM560 1233l127 311h242l-194 -311h-175z" />
<glyph unicode="&#x145;" horiz-adv-x="1538" d="M182 0v1434h213l730 -1007v1007h230v-1434h-197l-745 1024v-1024h-231zM668 -101h219v-178q0 -92 -58.5 -158.5t-150.5 -77.5v99q48 7 74.5 39t26.5 81h-111v195z" />
<glyph unicode="&#x146;" horiz-adv-x="1314" d="M162 0v1106h158l45 -154q64 85 163 132t219 47q192 0 306 -129t114 -336v-666h-227v620q0 151 -64.5 229t-189.5 78q-130 0 -213.5 -94.5t-83.5 -240.5v-592h-227zM547 -101h219v-179q0 -92 -58 -158t-151 -77v99q48 7 74.5 39t26.5 81h-111v195z" />
<glyph unicode="&#x147;" horiz-adv-x="1538" d="M182 0v1434h213l730 -1007v1007h230v-1434h-197l-745 1024v-1024h-231zM406 1876h198l170 -168l172 168h198l-240 -290h-258z" />
<glyph unicode="&#x148;" horiz-adv-x="1314" d="M162 0v1106h158l45 -154q64 85 163 132t219 47q192 0 306 -129t114 -336v-666h-227v620q0 151 -64.5 229t-189.5 78q-130 0 -213.5 -94.5t-83.5 -240.5v-592h-227zM306 1544h198l171 -181l173 181h197l-241 -311h-259z" />
<glyph unicode="&#x14a;" horiz-adv-x="1538" d="M182 0v1434h213l730 -1008v1008h230v-1380q0 -209 -116 -326t-323 -117h-50v216h71q90 0 147 56t57 144l-728 997v-1024h-231z" />
<glyph unicode="&#x14b;" horiz-adv-x="1314" d="M162 0v1106h158l45 -156q64 85 163 132t219 47q194 0 307 -125t113 -340v-660q0 -183 -107.5 -291.5t-290.5 -108.5h-78v205h45q96 0 150 55t54 151v603q0 151 -64.5 230t-189.5 79q-130 0 -213.5 -94.5t-83.5 -241.5v-591h-227z" />
<glyph unicode="&#x14c;" horiz-adv-x="1691" d="M90 717q0 210 98 380t271.5 267t387.5 97t387 -97t270.5 -267t97.5 -380t-97.5 -380t-270.5 -267t-387 -97t-387.5 97t-271.5 267t-98 380zM330 717q0 -145 67 -263.5t185.5 -186t264.5 -67.5q222 0 369 147.5t147 369.5t-147 369.5t-369 147.5q-146 0 -264.5 -67.5 t-185.5 -186t-67 -263.5zM527 1635v194h641v-194h-641z" />
<glyph unicode="&#x14d;" horiz-adv-x="1343" d="M81 553q0 165 77 297.5t212 207.5t302 75t302 -75t212 -208t77 -297t-77 -296.5t-212 -208t-302 -75.5t-302 75.5t-212 208t-77 296.5zM312 553q0 -159 101.5 -261t258.5 -102t258.5 102t101.5 261t-101.5 261t-258.5 102t-258.5 -102t-101.5 -261zM350 1301v179h641 v-179h-641z" />
<glyph unicode="&#x14e;" horiz-adv-x="1691" d="M90 717q0 210 98 380t271.5 267t387.5 97t387 -97t270.5 -267t97.5 -380t-97.5 -380t-270.5 -267t-387 -97t-387.5 97t-271.5 267t-98 380zM330 717q0 -145 67 -263.5t185.5 -186t264.5 -67.5q222 0 369 147.5t147 369.5t-147 369.5t-369 147.5q-146 0 -264.5 -67.5 t-185.5 -186t-67 -263.5zM516 1877h177v-8q0 -69 41 -107.5t112 -38.5q70 0 110.5 38.5t40.5 107.5v8h181q0 -139 -91 -222t-240 -83t-240 83t-91 222z" />
<glyph unicode="&#x14f;" horiz-adv-x="1343" d="M81 553q0 165 77 297.5t212 207.5t302 75t302 -75t212 -208t77 -297t-77 -296.5t-212 -208t-302 -75.5t-302 75.5t-212 208t-77 296.5zM312 553q0 -159 101.5 -261t258.5 -102t258.5 102t101.5 261t-101.5 261t-258.5 102t-258.5 -102t-101.5 -261zM328 1544h177v-7 q0 -79 45 -123t121 -44t119 44t43 123v7h181q0 -149 -94 -237t-249 -88t-249 88t-94 237z" />
<glyph unicode="&#x150;" horiz-adv-x="1691" d="M90 717q0 210 98 380t271.5 267t387.5 97t387 -97t270.5 -267t97.5 -380t-97.5 -380t-270.5 -267t-387 -97t-387.5 97t-271.5 267t-98 380zM330 717q0 -145 67 -263.5t185.5 -186t264.5 -67.5q222 0 369 147.5t147 369.5t-147 369.5t-369 147.5q-146 0 -264.5 -67.5 t-185.5 -186t-67 -263.5zM564 1586l114 290h213l-167 -290h-160zM924 1586l160 290h224l-222 -290h-162z" />
<glyph unicode="&#x151;" horiz-adv-x="1343" d="M81 553q0 165 77 297.5t212 207.5t302 75t302 -75t212 -208t77 -297t-77 -296.5t-212 -208t-302 -75.5t-302 75.5t-212 208t-77 296.5zM312 553q0 -159 101.5 -261t258.5 -102t258.5 102t101.5 261t-101.5 261t-258.5 102t-258.5 -102t-101.5 -261zM383 1233l114 311h228 l-174 -311h-168zM761 1233l155 311h221l-209 -311h-167z" />
<glyph unicode="&#x152;" horiz-adv-x="1966" d="M90 717q0 155 55 292.5t150 236.5t226.5 156.5t279.5 57.5q115 0 216 -26h826v-218h-600v-379h546v-212h-546v-406h622v-219h-852q-107 -27 -212 -27q-144 0 -275 56.5t-227 154.5t-152.5 237t-56.5 296zM330 717q0 -235 140 -374.5t362 -139.5q86 0 174 15v996 q-102 21 -183 21q-209 0 -351 -149t-142 -369z" />
<glyph unicode="&#x153;" horiz-adv-x="2234" d="M81 553q0 165 77 297.5t212 207.5t301 75q146 0 267.5 -62.5t199.5 -172.5q76 110 195 172.5t260 62.5q160 0 289.5 -76t201.5 -208.5t72 -296.5q0 -41 -4 -76h-900q21 -134 112 -211t229 -77q99 0 176.5 41.5t120.5 118.5h239q-66 -176 -208.5 -275.5t-327.5 -99.5 q-141 0 -260 63t-195 173q-78 -110 -199.5 -172t-267.5 -62q-166 0 -301.5 75t-212 207.5t-76.5 295.5zM312 553q0 -159 101.5 -261t257.5 -102q155 0 256 102t101 261t-101 261t-256 102q-156 0 -257.5 -102t-101.5 -261zM1257 659h673q-29 126 -119 198t-218 72 q-129 0 -218.5 -72.5t-117.5 -197.5z" />
<glyph unicode="&#x154;" horiz-adv-x="1333" d="M182 0v1434h558q208 0 345 -128t137 -326q0 -144 -79 -255.5t-212 -160.5l331 -564h-264l-308 531h-272v-531h-236zM418 751h309q116 0 186 64.5t70 166.5q0 101 -70.5 166t-185.5 65h-309v-462zM513 1586l135 290h242l-201 -290h-176z" />
<glyph unicode="&#x155;" horiz-adv-x="806" d="M162 0v1106h154l38 -151q118 157 339 157h98v-215h-120q-140 0 -211 -78t-71 -229v-590h-227zM358 1235l127 311h242l-194 -311h-175z" />
<glyph unicode="&#x156;" horiz-adv-x="1333" d="M182 0v1434h558q208 0 345 -128t137 -326q0 -144 -79 -255.5t-212 -160.5l331 -564h-264l-308 531h-272v-531h-236zM418 751h309q116 0 186 64.5t70 166.5q0 101 -70.5 166t-185.5 65h-309v-462zM580 -101h219v-178q0 -92 -58.5 -158.5t-150.5 -77.5v99q48 7 74.5 39 t26.5 81h-111v195z" />
<glyph unicode="&#x157;" horiz-adv-x="806" d="M162 0v1106h154l38 -151q118 157 339 157h98v-215h-120q-140 0 -211 -78t-71 -229v-590h-227zM167 -101h219v-178q0 -92 -58.5 -158.5t-150.5 -77.5v99q48 7 74.5 39t26.5 81h-111v195z" />
<glyph unicode="&#x158;" horiz-adv-x="1333" d="M182 0v1434h558q208 0 345 -128t137 -326q0 -144 -79 -255.5t-212 -160.5l331 -564h-264l-308 531h-272v-531h-236zM246 1876h198l170 -168l173 168h197l-240 -290h-258zM418 751h309q116 0 186 64.5t70 166.5q0 101 -70.5 166t-185.5 65h-309v-462z" />
<glyph unicode="&#x159;" horiz-adv-x="806" d="M104 1546h198l171 -181l173 181h197l-241 -311h-259zM162 0v1106h154l38 -151q118 157 339 157h98v-215h-120q-140 0 -211 -78t-71 -229v-590h-227z" />
<glyph unicode="&#x15a;" horiz-adv-x="1241" d="M89 451h239q0 -116 84.5 -182t215.5 -66q119 0 201 58t82 154q0 21 -4 39.5t-14 34.5t-19 28.5t-28.5 24.5t-32 20.5t-39.5 18t-42 15t-47.5 14t-48 12t-51.5 12.5q-183 44 -264 83q-182 88 -204 269q-4 28 -4 58q0 193 135.5 302t366.5 109q232 0 363.5 -118t131.5 -322 h-232q0 104 -75.5 162.5t-192.5 58.5q-112 0 -186.5 -48.5t-74.5 -133.5q0 -32 10.5 -58t35 -46.5t48 -34.5t67 -28t73 -22t83.5 -21q185 -46 267 -85q187 -91 214 -273q5 -33 5 -69q0 -139 -70.5 -240t-187.5 -150t-264 -49q-244 0 -392.5 127.5t-148.5 345.5zM497 1586 l134 290h242l-201 -290h-175z" />
<glyph unicode="&#x15b;" horiz-adv-x="1060" d="M78 351h222q4 -85 69.5 -131.5t168.5 -46.5q94 0 155 38.5t61 105.5q0 30 -14.5 54t-35 38.5t-58 26.5t-67 18t-79.5 15q-51 9 -81 15t-78 19.5t-77.5 28.5t-64.5 40t-54.5 55.5t-33 74.5t-13.5 97q0 149 118.5 241.5t310.5 92.5t308.5 -96.5t119.5 -257.5h-215 q-3 78 -60 119.5t-158 41.5q-94 0 -149 -36.5t-55 -97.5q0 -24 8 -42.5t27.5 -32.5t37 -23t52 -17t56.5 -12.5t65 -11.5q162 -27 233 -57q170 -73 180 -257q1 -12 1 -26q0 -161 -123 -257.5t-325 -96.5t-324.5 103t-127.5 275zM413 1233l127 311h242l-194 -311h-175z" />
<glyph unicode="&#x15c;" horiz-adv-x="1241" d="M89 451h239q0 -116 84.5 -182t215.5 -66q119 0 201 58t82 154q0 21 -4 39.5t-14 34.5t-19 28.5t-28.5 24.5t-32 20.5t-39.5 18t-42 15t-47.5 14t-48 12t-51.5 12.5q-183 44 -264 83q-182 88 -204 269q-4 28 -4 58q0 193 135.5 302t366.5 109q232 0 363.5 -118t131.5 -322 h-232q0 104 -75.5 162.5t-192.5 58.5q-112 0 -186.5 -48.5t-74.5 -133.5q0 -32 10.5 -58t35 -46.5t48 -34.5t67 -28t73 -22t83.5 -21q185 -46 267 -85q187 -91 214 -273q5 -33 5 -69q0 -139 -70.5 -240t-187.5 -150t-264 -49q-244 0 -392.5 127.5t-148.5 345.5zM230 1586 l239 290h259l240 -290h-198l-172 168l-170 -168h-198z" />
<glyph unicode="&#x15d;" horiz-adv-x="1060" d="M78 351h222q4 -85 69.5 -131.5t168.5 -46.5q94 0 155 38.5t61 105.5q0 30 -14.5 54t-35 38.5t-58 26.5t-67 18t-79.5 15q-51 9 -81 15t-78 19.5t-77.5 28.5t-64.5 40t-54.5 55.5t-33 74.5t-13.5 97q0 149 118.5 241.5t310.5 92.5t308.5 -96.5t119.5 -257.5h-215 q-3 78 -60 119.5t-158 41.5q-94 0 -149 -36.5t-55 -97.5q0 -24 8 -42.5t27.5 -32.5t37 -23t52 -17t56.5 -12.5t65 -11.5q162 -27 233 -57q170 -73 180 -257q1 -12 1 -26q0 -161 -123 -257.5t-325 -96.5t-324.5 103t-127.5 275zM161 1233l240 311h258l242 -311h-198l-173 180 l-171 -180h-198z" />
<glyph unicode="&#x15e;" horiz-adv-x="1241" d="M89 451h239q0 -116 84.5 -182t215.5 -66q119 0 201 58t82 154q0 21 -4 39.5t-14 34.5t-19 28.5t-28.5 24.5t-32 20.5t-39.5 18t-42 15t-47.5 14t-48 12t-51.5 12.5q-183 44 -264 83q-182 88 -204 269q-4 28 -4 58q0 193 135.5 302t366.5 109q232 0 363.5 -118t131.5 -322 h-232q0 104 -75.5 162.5t-192.5 58.5q-112 0 -186.5 -48.5t-74.5 -133.5q0 -32 10.5 -58t35 -46.5t48 -34.5t67 -28t73 -22t83.5 -21q185 -46 267 -85q187 -91 214 -273q5 -33 5 -69q0 -191 -125 -304.5t-325 -131.5l-18 -69q83 -15 132 -66t49 -125q0 -90 -74 -148 t-188 -58h-142v128h140q42 0 69 22t27 58q0 35 -27 57.5t-70 22.5h-68l-17 24l37 155q-212 21 -337.5 145.5t-125.5 323.5z" />
<glyph unicode="&#x15f;" horiz-adv-x="1060" d="M78 351h222q4 -85 69.5 -131.5t168.5 -46.5q94 0 155 38.5t61 105.5q0 30 -14.5 54t-35 38.5t-58 26.5t-67 18t-79.5 15q-51 9 -81 15t-78 19.5t-77.5 28.5t-64.5 40t-54.5 55.5t-33 74.5t-13.5 97q0 149 118.5 241.5t310.5 92.5t308.5 -97t119.5 -258h-215 q-3 78 -60 120t-158 42q-94 0 -149 -36.5t-55 -97.5q0 -24 8 -42.5t27.5 -32.5t37 -23t52 -17t56.5 -12.5t65 -11.5q162 -27 233 -57q170 -73 180 -257q1 -12 1 -26q0 -145 -101 -239t-273 -111l-20 -71q86 -11 138 -63t52 -130q0 -90 -67.5 -146t-174.5 -56h-147v124h128 q45 0 72.5 23.5t27.5 61.5q0 37 -27.5 60t-72.5 23h-65l-19 20l41 153q-177 15 -282.5 115.5t-109.5 259.5z" />
<glyph unicode="&#x160;" horiz-adv-x="1241" d="M89 451h239q0 -116 84.5 -182t215.5 -66q119 0 201 58t82 154q0 21 -4 39.5t-14 34.5t-19 28.5t-28.5 24.5t-32 20.5t-39.5 18t-42 15t-47.5 14t-48 12t-51.5 12.5q-183 44 -264 83q-182 88 -204 269q-4 28 -4 58q0 193 135.5 302t366.5 109q232 0 363.5 -118t131.5 -322 h-232q0 104 -75.5 162.5t-192.5 58.5q-112 0 -186.5 -48.5t-74.5 -133.5q0 -32 10.5 -58t35 -46.5t48 -34.5t67 -28t73 -22t83.5 -21q185 -46 267 -85q187 -91 214 -273q5 -33 5 -69q0 -139 -70.5 -240t-187.5 -150t-264 -49q-244 0 -392.5 127.5t-148.5 345.5zM230 1876 h198l170 -168l172 168h198l-240 -290h-259z" />
<glyph unicode="&#x161;" horiz-adv-x="1060" d="M78 351h222q4 -85 69.5 -131.5t168.5 -46.5q94 0 155 38.5t61 105.5q0 30 -14.5 54t-35 38.5t-58 26.5t-67 18t-79.5 15q-51 9 -81 15t-78 19.5t-77.5 28.5t-64.5 40t-54.5 55.5t-33 74.5t-13.5 97q0 149 118.5 241.5t310.5 92.5t308.5 -96.5t119.5 -257.5h-215 q-3 78 -60 119.5t-158 41.5q-94 0 -149 -36.5t-55 -97.5q0 -24 8 -42.5t27.5 -32.5t37 -23t52 -17t56.5 -12.5t65 -11.5q162 -27 233 -57q170 -73 180 -257q1 -12 1 -26q0 -161 -123 -257.5t-325 -96.5t-324.5 103t-127.5 275zM159 1544h197l172 -181l172 181h198l-241 -311 h-259z" />
<glyph unicode="&#x162;" horiz-adv-x="1163" d="M44 1214v220h1075v-220h-420v-1214h-48l-19 -75q83 -15 132 -66t49 -125q0 -90 -74 -147.5t-188 -57.5h-142v127h140q42 0 69 22t27 58q0 35 -27 57.5t-70 22.5h-67l-21 24l40 160h-36v1214h-420z" />
<glyph unicode="&#x163;" horiz-adv-x="841" d="M22 911v41l388 412h36v-258h330v-195h-328v-499q0 -99 53.5 -152.5t153.5 -53.5h127v-206h-170h-11l-21 -76q86 -11 137.5 -63t51.5 -130q0 -90 -67.5 -146t-174.5 -56h-147v124h128q45 0 73 23.5t28 60.5t-28 60.5t-73 23.5h-64l-19 20l48 178q-120 35 -186.5 133 t-66.5 242v517h-198z" />
<glyph unicode="&#x164;" horiz-adv-x="1163" d="M44 1214v220h1075l1 -220h-421v-1214h-235v1214h-420zM213 1876h197l170 -168l173 168h197l-239 -290h-259z" />
<glyph unicode="&#x165;" horiz-adv-x="876" d="M22 911v41l388 412h36v-258h300v-195h-298v-499q0 -99 53.5 -152.5t153.5 -53.5h126v-206h-169q-182 0 -287 105.5t-105 288.5v517h-198zM792 1307v195h219v-179q0 -92 -58.5 -158t-151.5 -77v99q48 7 75 39t27 81h-111z" />
<glyph unicode="&#x166;" horiz-adv-x="1163" d="M44 1214v220h1075v-220h-420v-399h286v-205h-286v-610h-235v610h-278v205h278v399h-420z" />
<glyph unicode="&#x167;" horiz-adv-x="878" d="M48 476v188h200v247h-198v44l385 409h39v-258h329v-195h-328v-247h328v-188h-328v-57q0 -102 55 -155.5t159 -53.5h121v-210h-152q-190 0 -300 110.5t-110 300.5v65h-200z" />
<glyph unicode="&#x168;" horiz-adv-x="1484" d="M167 536v898h236v-883q0 -158 95 -254.5t245 -96.5q149 0 243.5 96.5t94.5 254.5v883h237v-898q0 -163 -75 -292t-206 -200t-294 -71t-294.5 71t-206.5 200t-75 292zM370 1591v26q0 121 58 192t160 71q41 0 78 -14t55 -26.5t49 -39.5q23 -21 36.5 -32t35.5 -20.5t45 -9.5 q39 0 62 29.5t23 82.5v19h135v-23q0 -121 -58.5 -192.5t-158.5 -71.5q-45 0 -86 15.5t-62 30.5t-54 42q-24 19 -34 27t-29 17t-35 9q-37 0 -61.5 -30.5t-24.5 -81.5v-20h-134z" />
<glyph unicode="&#x169;" horiz-adv-x="1294" d="M145 467v639h227v-607q0 -144 74 -226.5t202 -82.5t201.5 83t73.5 226v607h227v-639q0 -224 -137 -359t-365 -135t-365.5 135t-137.5 359zM281 1249v25q0 120 57 190t157 70q41 0 78 -14t56.5 -28t48.5 -40q21 -19 35 -30t35 -20t43 -9q38 0 60.5 30.5t22.5 80.5v19h133 v-23q0 -119 -57.5 -189.5t-156.5 -70.5q-43 0 -84 16t-59 29t-53 41q-2 2 -10 8t-10.5 8t-9.5 7t-10 7t-9.5 6t-10 5.5t-9.5 4t-10.5 3.5t-10 2t-10.5 1q-36 0 -60 -30.5t-24 -78.5v-20h-132z" />
<glyph unicode="&#x16a;" horiz-adv-x="1484" d="M167 536v898h236v-883q0 -158 95 -255t245 -97q149 0 243.5 97t94.5 255v883h237v-898q0 -163 -75 -292t-206 -200t-294 -71t-294.5 71t-206.5 200t-75 292zM423 1635v194h641v-194h-641z" />
<glyph unicode="&#x16b;" horiz-adv-x="1294" d="M145 467v639h227v-607q0 -144 74 -226.5t202 -82.5t201.5 83t73.5 226v607h227v-639q0 -224 -137 -359t-365 -135t-365.5 135t-137.5 359zM326 1301v179h641v-179h-641z" />
<glyph unicode="&#x16c;" horiz-adv-x="1484" d="M167 536v898h236v-883q0 -158 95 -255t245 -97q149 0 243.5 97t94.5 255v883h237v-898q0 -163 -75 -292t-206 -200t-294 -71t-294.5 71t-206.5 200t-75 292zM412 1877h177v-8q0 -69 41 -107.5t112 -38.5q70 0 110.5 38.5t40.5 107.5v8h181q0 -139 -91 -222t-240 -83 t-240 83t-91 222z" />
<glyph unicode="&#x16d;" horiz-adv-x="1294" d="M145 467v639h227v-607q0 -144 74 -226.5t202 -82.5t201.5 83t73.5 226v607h227v-639q0 -224 -137 -359t-365 -135t-365.5 135t-137.5 359zM305 1544h176v-7q0 -78 45.5 -122.5t121.5 -44.5t119 44t43 123v7h181q0 -149 -94 -237t-249 -88t-249 88t-94 237z" />
<glyph unicode="&#x16e;" horiz-adv-x="1484" d="M167 536v898h236v-883q0 -158 95 -255t245 -97q149 0 243.5 97t94.5 255v883h237v-898q0 -163 -75 -292t-206 -200t-294 -71t-294.5 71t-206.5 200t-75 292zM481 1793q0 109 73 177t189 68q115 0 187 -68t72 -177q0 -108 -72 -177t-187 -69q-116 0 -189 69t-73 177z M615 1793q0 -53 36 -87.5t92 -34.5q55 0 90 34.5t35 87.5q0 54 -35 87.5t-90 33.5q-57 0 -92.5 -33.5t-35.5 -87.5z" />
<glyph unicode="&#x16f;" horiz-adv-x="1294" d="M145 467v639h227v-607q0 -144 74 -226.5t202 -82.5t201.5 83t73.5 226v607h227v-639q0 -224 -137 -359t-365 -135t-365.5 135t-137.5 359zM403 1435q0 103 68 167t177 64t177 -64t68 -167q0 -102 -68 -167t-177 -65t-177 65t-68 167zM528 1435q0 -50 34 -82t86 -32 t85.5 32t33.5 82q0 51 -33.5 83t-85.5 32t-86 -32t-34 -83z" />
<glyph unicode="&#x170;" horiz-adv-x="1484" d="M167 536v898h236v-883q0 -158 95 -255t245 -97q149 0 243.5 97t94.5 255v883h237v-898q0 -163 -75 -292t-206 -200t-294 -71t-294.5 71t-206.5 200t-75 292zM460 1586l114 290h214l-168 -290h-160zM820 1586l160 290h224l-222 -290h-162z" />
<glyph unicode="&#x171;" horiz-adv-x="1294" d="M145 467v639h227v-607q0 -144 74 -226.5t202 -82.5t201.5 83t73.5 226v607h227v-639q0 -224 -137 -359t-365 -135t-365.5 135t-137.5 359zM359 1233l114 311h228l-173 -311h-169zM738 1233l155 311h220l-209 -311h-166z" />
<glyph unicode="&#x172;" horiz-adv-x="1482" d="M167 542v892h235v-882q0 -156 94.5 -251t244.5 -95t245 95t95 251v882h235v-892q0 -86 -20.5 -160t-53 -127.5t-81 -99.5t-96 -76.5t-105.5 -58.5q-85 -41 -137.5 -97.5t-52.5 -121.5q0 -57 41 -88t105 -31q52 0 105 24v-130q-83 -46 -183 -46q-111 0 -186.5 58.5 t-75.5 159.5q0 58 29.5 121.5t80.5 110.5q-228 18 -373.5 174t-145.5 388z" />
<glyph unicode="&#x173;" horiz-adv-x="1292" d="M145 474v632h227v-609q0 -142 72.5 -223t200.5 -81t201.5 81t73.5 223v609h228v-638q0 -144 -63.5 -249t-200.5 -189q-165 -100 -165 -214q0 -57 38.5 -88t101.5 -31q46 0 112 22v-130q-80 -46 -172 -46q-106 0 -177.5 59.5t-71.5 160.5q0 113 80 213h-4 q-208 1 -344.5 141t-136.5 357z" />
<glyph unicode="&#x174;" horiz-adv-x="2115" d="M37 1434h249l324 -1059l402 1038h87l413 -1038l316 1059h247l-448 -1434h-208l-363 925l-353 -925h-209zM685 1586l239 290h259l240 -290h-198l-172 168l-170 -168h-198z" />
<glyph unicode="&#x175;" horiz-adv-x="1740" d="M32 1106h234l250 -745l317 733h74l321 -739l254 751h228l-371 -1106h-184l-285 673l-284 -673h-184zM500 1233l239 311h259l241 -311h-198l-173 180l-171 -180h-197z" />
<glyph unicode="&#x176;" horiz-adv-x="1366" d="M47 1434h254l383 -642l384 642h254l-519 -860v-574h-242v575zM315 1586l239 290h259l240 -290h-198l-173 168l-170 -168h-197z" />
<glyph unicode="&#x177;" horiz-adv-x="1214" d="M23 1106h247l351 -771l330 771h242l-508 -1126q-95 -211 -194 -293.5t-266 -82.5h-113v204h95q108 0 159 42.5t113 177.5l25 52zM245 1233l239 311h259l241 -311h-197l-173 180l-171 -180h-198z" />
<glyph unicode="&#x178;" horiz-adv-x="1366" d="M47 1434h254l383 -642l384 642h254l-519 -860v-574h-242v575zM330 1594v234h249v-234h-249zM789 1594v234h249v-234h-249z" />
<glyph unicode="&#x179;" horiz-adv-x="1171" d="M53 0v37l679 1177h-645v220h1007v-44l-675 -1171h697v-219h-1063zM513 1586l134 290h242l-201 -290h-175z" />
<glyph unicode="&#x17a;" horiz-adv-x="1003" d="M48 0v29l536 869h-494v208h844v-34l-531 -861h532v-211h-887zM400 1233l127 311h242l-194 -311h-175z" />
<glyph unicode="&#x17b;" horiz-adv-x="1171" d="M53 0v37l679 1177h-645v220h1007v-44l-675 -1171h697v-219h-1063zM492 1595v233h248v-233h-248z" />
<glyph unicode="&#x17c;" horiz-adv-x="1003" d="M48 0v29l536 869h-494v208h844v-34l-531 -861h532v-211h-887zM398 1275v237h235v-237h-235z" />
<glyph unicode="&#x17d;" horiz-adv-x="1171" d="M53 0v37l679 1177h-645v220h1007v-44l-675 -1171h697v-219h-1063zM246 1876h198l170 -168l172 168h198l-240 -290h-258z" />
<glyph unicode="&#x17e;" horiz-adv-x="1003" d="M48 0v29l536 869h-494v208h844v-34l-531 -861h532v-211h-887zM146 1544h198l171 -181l172 181h198l-241 -311h-259z" />
<glyph unicode="&#x17f;" horiz-adv-x="591" d="M162 0v1192q0 145 82 226t229 81h216v-207h-147q-78 0 -115.5 -37t-37.5 -113v-1142h-227z" />
<glyph unicode="&#x192;" horiz-adv-x="909" d="M-118 -445l27 197h76q73 0 121.5 42.5t59.5 116.5l117 834h-190l25 173h189l24 173q17 127 108.5 204t225.5 77h207l-21 -166h-145q-67 0 -113 -38t-53 -101l-20 -149h291l-24 -173h-285l-126 -881q-19 -140 -117 -224.5t-241 -84.5h-136z" />
<glyph unicode="&#x1fc;" horiz-adv-x="1863" d="M-33 0l851 1434h922v-220h-594v-375h541v-216h-541v-401h617v-222h-854v296h-492l-174 -296h-276zM541 507h368v624zM958 1586l134 290h242l-201 -290h-175z" />
<glyph unicode="&#x1fd;" horiz-adv-x="2228" d="M81 553q0 163 75 295.5t207 207.5t294 75q226 0 380 -154l11 132h150l11 -141q153 163 382 163q159 0 287.5 -76t200 -208.5t71.5 -294.5q0 -42 -4 -77h-902q22 -132 113 -208.5t229 -76.5q99 0 177 41t121 117h239q-65 -174 -207 -274t-325 -100q-113 0 -211.5 42.5 t-170.5 120.5l-10 -140h-154l-10 130q-154 -152 -378 -152q-162 0 -294 76t-207 208.5t-75 293.5zM313 553q0 -156 101 -258.5t255 -102.5q155 0 255.5 102t100.5 259t-100.5 259t-255.5 102q-154 0 -255 -102.5t-101 -258.5zM1019 1233l127 311h242l-194 -311h-175z M1250 660h673q-29 125 -119 196.5t-218 71.5q-130 0 -219 -72t-117 -196z" />
<glyph unicode="&#x1fe;" horiz-adv-x="1712" d="M89 717q0 156 58 293.5t158 235.5t240.5 155t299.5 57q156 0 299 -58l95 161h254l-160 -263q135 -101 211 -253.5t76 -333.5q0 -207 -97.5 -375t-270 -263.5t-385.5 -95.5q-157 0 -294 54l-95 -158h-255l160 257q-138 100 -216 253t-78 334zM329 719q0 -118 48 -220 t133 -172l521 874q-87 30 -186 30q-220 0 -368 -147t-148 -365zM689 231q86 -28 172 -28q146 0 264 66t185.5 182.5t67.5 260.5q0 117 -45 217.5t-125 170.5zM750 1586l135 290h242l-201 -290h-176z" />
<glyph unicode="&#x1ff;" horiz-adv-x="1357" d="M80 555q0 162 76 293.5t210 206.5t298 75q104 0 200 -34l72 135h209l-112 -210q114 -78 178.5 -200t64.5 -270q0 -121 -44.5 -227.5t-121 -182.5t-184 -120t-230.5 -44q-113 0 -216 39l-78 -141h-209l122 217q-110 77 -172.5 197.5t-62.5 265.5zM300 555q0 -180 121 -282 l349 637q-50 15 -106 15q-160 0 -262 -104.5t-102 -265.5zM563 1233l127 311h242l-194 -311h-175zM578 201q57 -19 118 -19q157 0 259 104t102 265q0 181 -129 285z" />
<glyph unicode="&#x218;" horiz-adv-x="1241" d="M89 451h239q0 -116 84.5 -182t215.5 -66q119 0 201 58t82 154q0 21 -4 39.5t-14 34.5t-19 28.5t-28.5 24.5t-32 20.5t-39.5 18t-42 15t-47.5 14t-48 12t-51.5 12.5q-183 44 -264 83q-182 88 -204 269q-4 28 -4 58q0 193 135.5 302t366.5 109q232 0 363.5 -118t131.5 -322 h-232q0 104 -75.5 162.5t-192.5 58.5q-112 0 -186.5 -48.5t-74.5 -133.5q0 -32 10.5 -58t35 -46.5t48 -34.5t67 -28t73 -22t83.5 -21q185 -46 267 -85q187 -91 214 -273q5 -33 5 -69q0 -139 -70.5 -240t-187.5 -150t-264 -49q-244 0 -392.5 127.5t-148.5 345.5zM545 -114 h219v-179q0 -92 -58 -158t-151 -77v99q48 7 74.5 39t26.5 81h-111v195z" />
<glyph unicode="&#x219;" horiz-adv-x="1060" d="M78 351h222q4 -85 69.5 -131.5t168.5 -46.5q94 0 155 38.5t61 105.5q0 30 -14.5 54t-35 38.5t-58 26.5t-67 18t-79.5 15q-51 9 -81 15t-78 19.5t-77.5 28.5t-64.5 40t-54.5 55.5t-33 74.5t-13.5 97q0 149 118.5 241.5t310.5 92.5t308.5 -96.5t119.5 -257.5h-215 q-3 78 -60 119.5t-158 41.5q-94 0 -149 -36.5t-55 -97.5q0 -24 8 -42.5t27.5 -32.5t37 -23t52 -17t56.5 -12.5t65 -11.5q162 -27 233 -57q170 -73 180 -257q1 -12 1 -26q0 -161 -123 -257.5t-325 -96.5t-324.5 103t-127.5 275zM453 -118h219v-179q0 -92 -58 -158t-151 -77 l-1 99q48 7 75 39t27 81h-111v195z" />
<glyph unicode="&#x21a;" horiz-adv-x="1163" d="M44 1214v220h1075l1 -220h-421v-1214h-235v1214h-420zM472 -101h219v-178q0 -92 -58.5 -158.5t-151.5 -77.5v99q48 7 75 39t27 81h-111v195z" />
<glyph unicode="&#x21b;" horiz-adv-x="839" d="M22 911v44l385 409h39v-258h329v-195h-327v-499q0 -99 53.5 -152.5t153.5 -53.5h126v-206h-169q-182 0 -287 105.5t-105 288.5v517h-198zM393 -101h219v-178q0 -92 -58.5 -158.5t-150.5 -77.5v99q48 7 74.5 39t26.5 81h-111v195z" />
<glyph unicode="&#x2c6;" horiz-adv-x="1228" d="M278 1233l239 311h258l242 -311h-198l-173 180l-171 -180h-197z" />
<glyph unicode="&#x2c7;" horiz-adv-x="1228" d="M216 1544h198l171 -181l173 181h197l-241 -311h-259z" />
<glyph unicode="&#x2d8;" horiz-adv-x="1228" d="M212 1544h176v-7q0 -78 45.5 -122.5t121.5 -44.5t119 44t43 123v7h181q0 -149 -94 -237t-249 -88t-249 88t-94 237z" />
<glyph unicode="&#x2d9;" horiz-adv-x="651" d="M209 1275v237h235v-237h-235z" />
<glyph unicode="&#x2da;" horiz-adv-x="839" d="M175 1435q0 103 68 167t177 64t177 -64t68 -167q0 -102 -68 -167t-177 -65t-177 65t-68 167zM300 1435q0 -50 34 -82t86 -32t85.5 32t33.5 82q0 51 -33.5 83t-85.5 32t-86 -32t-34 -83z" />
<glyph unicode="&#x2db;" horiz-adv-x="886" d="M219 -252q0 123 111.5 234.5t287.5 165.5l3 -120q-105 -25 -170.5 -88.5t-65.5 -138.5q0 -53 39.5 -86t104.5 -33q52 0 106 24v-130q-79 -45 -167 -45q-110 0 -179.5 61t-69.5 156z" />
<glyph unicode="&#x2dc;" horiz-adv-x="1228" d="M244 1249v25q0 120 57 190t157 70q41 0 78 -14t56.5 -28t48.5 -40q21 -19 35 -30t35 -20t43 -9q37 0 59.5 30.5t22.5 80.5v19h134v-23q0 -119 -57.5 -189.5t-156.5 -70.5q-43 0 -84 16t-59 29t-53 41q-2 2 -10 8t-10.5 8t-9.5 7t-10 7t-9.5 6t-10 5.5t-9.5 4t-10.5 3.5 t-10 2t-10.5 1q-36 0 -60 -30.5t-24 -78.5v-20h-132z" />
<glyph unicode="&#x2dd;" horiz-adv-x="1153" d="M190 1233l114 311h229l-174 -311h-169zM569 1233l155 311h220l-208 -311h-167z" />
<glyph unicode="&#x3a9;" horiz-adv-x="1771" d="M119 0v219h257q-116 106 -179 244t-63 298q0 194 99.5 355t272 253t379.5 92t380 -92t273 -253t100 -355q0 -321 -243 -542h257v-219h-649v214q181 62 287.5 205t106.5 324q0 207 -148.5 349t-363.5 142q-105 0 -199.5 -38t-162.5 -103.5t-108 -156.5t-40 -193 q0 -181 105.5 -324t286.5 -205v-214h-648z" />
<glyph unicode="&#x3c0;" horiz-adv-x="1288" d="M162 0v1106h965v-1106h-225v899h-513v-899h-227z" />
<glyph unicode="&#x401;" horiz-adv-x="1138" d="M182 0v1434h833v-221h-597v-374h544v-216h-544v-401h619v-222h-855zM242 1594v234h250v-234h-250zM701 1594v234h250v-234h-250z" />
<glyph unicode="&#x402;" horiz-adv-x="1525" d="M44 1214v220h1061v-220h-418v-330q120 84 269 84q220 0 356.5 -137t136.5 -357q0 -221 -139.5 -356.5t-368.5 -135.5h-15v227h15q124 -1 197 75t73 190q0 116 -73.5 191.5t-198.5 75.5q-71 0 -138 -32.5t-114 -88.5v-620h-236v1214h-407z" />
<glyph unicode="&#x403;" horiz-adv-x="1013" d="M182 0v1434h789v-220h-553v-1214h-236zM424 1586l134 290h242l-201 -290h-175z" />
<glyph unicode="&#x404;" horiz-adv-x="1593" d="M91 717q0 158 56.5 296t154.5 236.5t235 155t292 56.5q256 0 441 -143t253 -392h-237q-59 144 -178.5 224.5t-278.5 80.5q-187 0 -321.5 -111.5t-169.5 -292.5h630v-215h-631q33 -183 168 -296.5t324 -113.5q164 0 287.5 87t176.5 240h236q-57 -254 -247.5 -405 t-452.5 -151q-209 0 -378.5 97t-264.5 267t-95 380z" />
<glyph unicode="&#x405;" horiz-adv-x="1241" d="M89 451h239q0 -116 84.5 -182t215.5 -66q119 0 201 58t82 154q0 21 -4 39.5t-14 34.5t-19 28.5t-28.5 24.5t-32 20.5t-39.5 18t-42 15t-47.5 14t-48 12t-51.5 12.5q-183 44 -264 83q-182 88 -204 269q-4 28 -4 58q0 193 135.5 302t366.5 109q232 0 363.5 -118t131.5 -322 h-232q0 104 -75.5 162.5t-192.5 58.5q-112 0 -186.5 -48.5t-74.5 -133.5q0 -32 10.5 -58t35 -46.5t48 -34.5t67 -28t73 -22t83.5 -21q185 -46 267 -85q187 -91 214 -273q5 -33 5 -69q0 -139 -70.5 -240t-187.5 -150t-264 -49q-244 0 -392.5 127.5t-148.5 345.5z" />
<glyph unicode="&#x406;" horiz-adv-x="600" d="M182 0v1434h236v-1434h-236z" />
<glyph unicode="&#x407;" horiz-adv-x="600" d="M26 1594v234h225v-234h-225zM182 0v1434h236v-1434h-236zM351 1594v234h225v-234h-225z" />
<glyph unicode="&#x408;" horiz-adv-x="1232" d="M52 481v39h233v-28q0 -130 77.5 -211.5t199.5 -81.5q118 0 194 82t76 211v942h233v-953q0 -223 -141 -365.5t-362 -142.5t-365.5 143.5t-144.5 364.5z" />
<glyph unicode="&#x409;" horiz-adv-x="2201" d="M42 -3v233h67q201 0 225 245l98 959h910v-481h303q218 0 357 -134t139 -343q0 -207 -140 -341.5t-356 -134.5h-540v1214h-468l-68 -731q-24 -245 -138.5 -365.5t-323.5 -120.5h-65zM1342 219h285q120 0 197.5 73t77.5 186q0 114 -77.5 186t-197.5 72h-285v-517z" />
<glyph unicode="&#x40a;" horiz-adv-x="2074" d="M182 0v1434h236v-564h587v564h235v-550h304q211 0 342 -124t131 -318q0 -195 -131 -318.5t-342 -123.5h-539v649h-587v-649h-236zM1240 220h291q114 0 180.5 60t66.5 162t-66.5 161.5t-180.5 59.5h-291v-443z" />
<glyph unicode="&#x40b;" horiz-adv-x="1570" d="M44 1214v220h1075v-220h-418v-314q142 49 271 49q223 0 363 -137t140 -378v-434h-238v414q0 159 -77.5 238t-215.5 79q-105 0 -243 -48v-683h-236v1214h-421z" />
<glyph unicode="&#x40e;" horiz-adv-x="1259" d="M19 1434h268l394 -749l318 749h249l-426 -982q-113 -263 -233.5 -359.5t-332.5 -96.5h-62v219h85q108 0 165 40t117 159zM354 1635v177h596v-177h-596z" />
<glyph unicode="&#x40f;" horiz-adv-x="1458" d="M182 0v1434h236v-1215h620v1215h237v-1434h-431v-276h-232v276h-430z" />
<glyph unicode="&#x410;" horiz-adv-x="1445" d="M27 0l576 1434h222l593 -1434h-256l-123 312h-640l-122 -312h-250zM481 523h476l-240 604z" />
<glyph unicode="&#x411;" horiz-adv-x="1259" d="M182 0v1434h896v-220h-662v-313h307q203 0 333 -126.5t130 -322.5t-132 -324t-334 -128h-538zM416 223h286q106 0 174.5 65t68.5 164q0 100 -67.5 163t-174.5 63h-287v-455z" />
<glyph unicode="&#x412;" horiz-adv-x="1318" d="M182 0v1434h578q180 0 298 -105t118 -264q0 -94 -45 -181t-122 -137q96 -45 150 -137t54 -208q0 -169 -128 -285.5t-314 -116.5h-589zM414 225h344q94 0 154.5 57t60.5 146q0 87 -61 144.5t-154 57.5h-344v-405zM414 844h332q85 0 140 53.5t55 133.5t-55 133t-140 53 h-332v-373z" />
<glyph unicode="&#x413;" horiz-adv-x="1013" d="M182 0v1434h789v-220h-553v-1214h-236z" />
<glyph unicode="&#x414;" horiz-adv-x="1556" d="M52 219h113q29 20 50.5 48t39.5 65.5t33 107t28 146t27 211.5t27 274.5t32 362.5h921v-1215h144v-497h-217v278h-981v-278h-217v497zM418 219h668v995h-474q-35 -499 -74.5 -704.5t-119.5 -290.5z" />
<glyph unicode="&#x415;" horiz-adv-x="1138" d="M182 0v1434h833v-221h-597v-374h544v-216h-544v-401h619v-222h-855z" />
<glyph unicode="&#x416;" horiz-adv-x="2019" d="M-3 0l529 747l-475 687h280l403 -586h157v586h237v-586h157l403 586h278l-473 -687l528 -747h-291l-444 629h-158v-629h-237v629h-159l-444 -629h-291z" />
<glyph unicode="&#x417;" horiz-adv-x="1185" d="M80 416h230q7 -103 83 -166t186 -63q119 0 197 63.5t78 166.5q0 101 -69.5 164t-180.5 63h-150v203h150q97 0 159.5 57t62.5 146q0 93 -69.5 149.5t-177.5 56.5q-98 0 -169.5 -56.5t-81.5 -146.5h-225q9 183 145 295.5t330 112.5q132 0 239.5 -49t171 -142t63.5 -214 q0 -95 -42 -175t-118 -129q90 -52 142 -143.5t52 -200.5q0 -128 -68 -227.5t-183.5 -152.5t-255.5 -53q-208 0 -350 121t-149 320z" />
<glyph unicode="&#x418;" horiz-adv-x="1515" d="M182 0v1434h236v-984l743 984h171v-1434h-235v993l-751 -993h-164z" />
<glyph unicode="&#x419;" horiz-adv-x="1515" d="M182 0v1434h236v-984l743 984h171v-1434h-235v993l-751 -993h-164zM450 1635v177h596v-177h-596z" />
<glyph unicode="&#x41a;" horiz-adv-x="1320" d="M182 0v1434h236v-586h167l408 586h289l-489 -692l534 -742h-292l-449 629h-168v-629h-236z" />
<glyph unicode="&#x41b;" horiz-adv-x="1527" d="M43 -3v232h67q201 0 225 245l94 960h916v-1434h-235v1214h-469l-68 -731q-46 -486 -462 -486h-68z" />
<glyph unicode="&#x41c;" horiz-adv-x="1974" d="M83 0l235 1434h231l437 -975l439 975h235l230 -1434h-240l-166 1039l-466 -1017h-60l-467 1016l-168 -1038h-240z" />
<glyph unicode="&#x41d;" horiz-adv-x="1490" d="M182 0v1434h236v-586h655v586h236v-1434h-236v625h-655v-625h-236z" />
<glyph unicode="&#x41e;" horiz-adv-x="1691" d="M90 717q0 210 98 380t271.5 267t387.5 97t387 -97t270.5 -267t97.5 -380t-97.5 -380t-270.5 -267t-387 -97t-387.5 97t-271.5 267t-98 380zM330 717q0 -145 67 -263.5t185.5 -186t264.5 -67.5q222 0 369 147.5t147 369.5t-147 369.5t-369 147.5q-146 0 -264.5 -67.5 t-185.5 -186t-67 -263.5z" />
<glyph unicode="&#x41f;" horiz-adv-x="1439" d="M182 0v1434h1076v-1434h-237v1214h-603v-1214h-236z" />
<glyph unicode="&#x420;" horiz-adv-x="1259" d="M182 0v1434h530q209 0 349 -135t140 -339q0 -203 -140 -338t-349 -135h-294v-487h-236zM418 710h283q114 0 187.5 71t73.5 179t-73.5 179t-187.5 71h-283v-500z" />
<glyph unicode="&#x421;" horiz-adv-x="1585" d="M91 716q0 158 56 296.5t153 236.5t234 154t294 56q254 0 442 -146t244 -388h-238q-51 143 -170 224.5t-278 81.5q-216 0 -357 -145.5t-141 -369.5t141 -369t357 -145q164 0 284 87t169 240h239q-56 -253 -244.5 -403.5t-447.5 -150.5q-157 0 -294 56t-234 153.5 t-153 235.5t-56 296z" />
<glyph unicode="&#x422;" horiz-adv-x="1163" d="M44 1214v220h1075l1 -220h-421v-1214h-235v1214h-420z" />
<glyph unicode="&#x423;" horiz-adv-x="1259" d="M19 1434h268l394 -749l318 749h249l-426 -982q-113 -263 -233.5 -359.5t-332.5 -96.5h-62v219h85q108 0 165 40t117 159z" />
<glyph unicode="&#x424;" horiz-adv-x="1806" d="M92 715q0 141 47.5 270t134 231t220 167t294.5 74v193h229v-192q162 -9 295.5 -73t220 -165.5t133.5 -230.5t47 -270q0 -142 -47 -271.5t-133.5 -231.5t-220 -166.5t-295.5 -73.5v-219h-229v219q-161 9 -294.5 74t-220 166.5t-134 230t-47.5 268.5zM331 717 q0 -201 125 -350t333 -168v1033q-139 -13 -244.5 -87.5t-159.5 -186t-54 -241.5zM1016 199q105 9 192.5 55t145 116.5t89 160t31.5 186.5q0 130 -53.5 241.5t-159.5 186.5t-245 87v-1033z" />
<glyph unicode="&#x425;" horiz-adv-x="1251" d="M13 0l470 752l-436 682h265l315 -504l313 504h262l-432 -691l469 -743h-264l-348 559l-348 -559h-266z" />
<glyph unicode="&#x426;" horiz-adv-x="1476" d="M182 0v1434h236v-1215h591v1215h235v-1215h141v-497h-217v278h-986z" />
<glyph unicode="&#x427;" horiz-adv-x="1325" d="M93 1014v420h238v-410q0 -154 76.5 -235.5t220.5 -81.5q118 0 277 66v661h237v-1434h-237v545q-156 -60 -300 -60q-226 0 -369 141t-143 388z" />
<glyph unicode="&#x428;" horiz-adv-x="1992" d="M182 0v1434h236v-1215h462v1215h230v-1215h464v1215h235v-1434h-1627z" />
<glyph unicode="&#x429;" horiz-adv-x="2045" d="M182 0v1434h236v-1215h462v1215h230v-1215h464v1215h235v-1215h148v-497h-217v278h-1558z" />
<glyph unicode="&#x42a;" horiz-adv-x="1447" d="M38 1214v220h551v-479h303q218 0 357.5 -134.5t139.5 -343.5q0 -208 -140.5 -342.5t-356.5 -134.5h-538v1214h-316zM589 221h286q120 0 197 72.5t77 185.5t-76.5 185t-197.5 72h-286v-515z" />
<glyph unicode="&#x42b;" horiz-adv-x="1820" d="M182 0v1434h236v-479h303q217 0 356.5 -134.5t139.5 -343.5q0 -208 -140 -342.5t-356 -134.5h-539zM418 221h286q120 0 197 72.5t77 185.5t-76.5 185t-197.5 72h-286v-515zM1403 0v1434h235v-1434h-235z" />
<glyph unicode="&#x42c;" horiz-adv-x="1277" d="M182 0v1434h236v-479h303q217 0 356.5 -134.5t139.5 -343.5q0 -208 -140 -342.5t-356 -134.5h-539zM418 221h286q120 0 197 72.5t77 185.5t-76.5 185t-197.5 72h-286v-515z" />
<glyph unicode="&#x42d;" horiz-adv-x="1593" d="M64 529h236q53 -154 176 -241t288 -87q189 0 324 114t167 298h-630v214h629q-35 181 -169.5 293.5t-320.5 112.5q-159 0 -278.5 -81t-178.5 -226h-237q68 249 253 392t441 143q155 0 292 -56.5t235 -155t154.5 -236.5t56.5 -296q0 -210 -95 -380t-264.5 -267t-378.5 -97 q-262 0 -452.5 151t-247.5 405z" />
<glyph unicode="&#x42e;" horiz-adv-x="2156" d="M182 0v1434h236v-606h201q36 280 235 456.5t484 176.5q155 0 290.5 -56t231 -154t150.5 -236.5t55 -297.5q0 -213 -93 -383t-259.5 -265.5t-374.5 -95.5q-285 0 -484.5 177t-234.5 458h-201v-608h-236zM834 717q0 -222 142 -368.5t355 -146.5q217 0 356.5 145.5 t139.5 369.5t-140 370.5t-356 146.5q-213 0 -355 -147.5t-142 -369.5z" />
<glyph unicode="&#x42f;" horiz-adv-x="1343" d="M80 0l333 563q-143 49 -225.5 159.5t-82.5 257.5q0 194 139 324t348 130h568v-1434h-236v531h-266l-306 -531h-272zM346 980q0 -103 72.5 -169t185.5 -66h320v468h-320q-113 0 -185.5 -65t-72.5 -168z" />
<glyph unicode="&#x430;" horiz-adv-x="1425" d="M81 554q0 164 75 296.5t207 207.5t294 75q120 0 224 -43t180 -122l27 139l175 -1v-1105h-183l-22 134q-76 -77 -179 -119.5t-222 -42.5q-162 0 -294 75.5t-207 209t-75 296.5zM312 554q0 -156 103 -259.5t259 -103.5t258.5 103.5t102.5 259.5t-102.5 259t-258.5 103 t-259 -103.5t-103 -258.5z" />
<glyph unicode="&#x431;" horiz-adv-x="1347" d="M113 606q0 403 155 613t517 298l345 84v-224l-342 -82q-180 -43 -283 -134t-136 -236q143 128 357 128q240 0 389.5 -147.5t149.5 -382.5q0 -244 -159 -397t-414 -153q-270 0 -424.5 169t-154.5 464zM350 523q0 -144 97 -239.5t245 -95.5q146 0 243.5 95.5t97.5 239.5 t-97.5 240t-243.5 96q-148 0 -245 -95.5t-97 -240.5z" />
<glyph unicode="&#x432;" horiz-adv-x="1177" d="M162 0v1106h570q139 0 227.5 -79t88.5 -203q0 -79 -37 -144.5t-100 -101.5q79 -32 125.5 -101.5t46.5 -159.5q0 -135 -98.5 -226t-246.5 -91h-576zM385 199h313q68 0 110.5 38.5t42.5 99.5t-43 99.5t-112 38.5h-311v-276zM385 659h301q63 0 100.5 35t37.5 92t-38 92 t-100 35h-301v-254z" />
<glyph unicode="&#x433;" horiz-adv-x="903" d="M162 0v1106h707v-202h-484v-904h-223z" />
<glyph unicode="&#x434;" horiz-adv-x="1347" d="M45 214h117q36 30 57 72t41 147t35 250.5t38 422.5h789v-892h143v-492h-207v278h-806v-278h-207v492zM400 214h499v692h-364q-23 -336 -51.5 -481t-83.5 -211z" />
<glyph unicode="&#x435;" horiz-adv-x="1292" d="M81 553q0 163 74 296t204 208.5t290 75.5q165 0 295 -78.5t199.5 -211t69.5 -293.5q0 -32 -5 -74h-898q21 -134 112 -212t227 -78q98 0 175.5 43t121.5 119h240q-66 -175 -209 -275t-328 -100q-242 0 -405 166.5t-163 413.5zM316 660h669q-31 126 -120.5 197t-215.5 71 q-127 0 -216 -72t-117 -196z" />
<glyph unicode="&#x436;" horiz-adv-x="1679" d="M-1 0l410 582l-369 524h261l298 -432h131v432h220v-432h131l298 432h261l-369 -524l410 -582h-276l-324 472h-131v-472h-220v472h-131l-323 -472h-277z" />
<glyph unicode="&#x437;" horiz-adv-x="1011" d="M56 333h207q11 -73 70.5 -113.5t154.5 -40.5q96 0 155.5 43.5t59.5 113.5q0 68 -53 110.5t-138 42.5h-144v176h144q76 0 121.5 36.5t45.5 98.5q0 65 -52 103.5t-141 38.5q-81 0 -133.5 -36.5t-62.5 -101.5h-207q9 147 122 238t286 91q176 0 290 -90t114 -229 q0 -145 -115 -226q145 -86 145 -268q0 -153 -122.5 -250t-314.5 -97q-187 0 -304.5 98t-127.5 262z" />
<glyph unicode="&#x438;" horiz-adv-x="1261" d="M162 0v1106h219v-696l591 696h127v-1106h-217v702l-590 -702h-130z" />
<glyph unicode="&#x439;" horiz-adv-x="1261" d="M162 0v1106h219v-696l591 696h127v-1106h-217v702l-590 -702h-130zM364 1301v169h549v-169h-549z" />
<glyph unicode="&#x43a;" horiz-adv-x="1134" d="M162 0v1106h227v-428h140l299 428h269l-374 -530l415 -576h-279l-332 472h-138v-472h-227z" />
<glyph unicode="&#x43b;" horiz-adv-x="1269" d="M41 -6v209h54q160 0 182 202l78 701h754v-1106h-224v908h-342l-49 -488q-23 -232 -120.5 -329t-293.5 -97h-39z" />
<glyph unicode="&#x43c;" horiz-adv-x="1638" d="M73 0l200 1106h192l354 -707l356 707h191l200 -1106h-220l-133 753l-371 -740h-47l-369 740l-133 -753h-220z" />
<glyph unicode="&#x43d;" horiz-adv-x="1284" d="M162 0v1106h224v-434h512v434h225v-1106h-225v463h-512v-463h-224z" />
<glyph unicode="&#x43e;" horiz-adv-x="1343" d="M81 553q0 165 77 297.5t212 207.5t302 75t302 -75t212 -208t77 -297t-77 -296.5t-212 -208t-302 -75.5t-302 75.5t-212 208t-77 296.5zM312 553q0 -159 101.5 -261t258.5 -102t258.5 102t101.5 261t-101.5 261t-258.5 102t-258.5 -102t-101.5 -261z" />
<glyph unicode="&#x43f;" horiz-adv-x="1288" d="M162 0v1106h965v-1106h-225v899h-513v-899h-227z" />
<glyph unicode="&#x440;" horiz-adv-x="1411" d="M162 -396v1502h153l43 -136q76 78 178.5 120.5t220.5 42.5q163 0 294 -75t204.5 -208t73.5 -297q0 -249 -162.5 -415t-409.5 -166q-213 0 -368 134v-502h-227zM376 553q0 -155 103.5 -259t259.5 -104t258 103.5t102 259.5t-102 259.5t-258 103.5t-259.5 -104t-103.5 -259 z" />
<glyph unicode="&#x441;" horiz-adv-x="1273" d="M81 554q0 163 75.5 295.5t208.5 208t296 75.5q204 0 353 -115t195 -306h-225q-44 95 -130 149.5t-194 54.5q-149 0 -248.5 -104t-99.5 -258t100 -259t248 -105q109 0 193.5 56t129.5 157h229q-46 -194 -197 -312t-355 -118q-162 0 -295 76t-208.5 209t-75.5 296z" />
<glyph unicode="&#x442;" horiz-adv-x="1073" d="M35 901v205h1002v-205h-389v-901h-223v901h-390z" />
<glyph unicode="&#x443;" horiz-adv-x="1214" d="M23 1106h247l351 -771l330 771h242l-508 -1126q-95 -211 -194 -293.5t-266 -82.5h-113v204h95q108 0 159 42.5t113 177.5l25 52z" />
<glyph unicode="&#x444;" horiz-adv-x="1515" d="M81 549q0 121 43 227t118.5 182t180.5 122t226 52v309h217v-309q246 -11 407.5 -174.5t161.5 -408.5q0 -243 -160.5 -403.5t-408.5 -171.5v-322h-217v322q-248 11 -408 171t-160 404zM303 551q0 -153 97 -255t250 -113v739q-152 -11 -249.5 -115t-97.5 -256zM865 183 q153 11 250.5 114t97.5 254q0 152 -98.5 256t-249.5 115v-739z" />
<glyph unicode="&#x445;" horiz-adv-x="1079" d="M10 0l393 572l-363 534h256l244 -372l252 372h250l-367 -523l395 -583h-256l-275 421l-279 -421h-250z" />
<glyph unicode="&#x446;" horiz-adv-x="1318" d="M162 0v1106h223v-897h484v897h222v-897h149v-487h-207v278h-871z" />
<glyph unicode="&#x447;" horiz-adv-x="1146" d="M78 801v305h223v-297q0 -119 62.5 -182t180.5 -63q119 0 220 53v489h220v-1106h-220v396q-112 -42 -237 -42q-204 0 -326.5 119t-122.5 328z" />
<glyph unicode="&#x448;" horiz-adv-x="1726" d="M162 0v1106h223v-897h370v897h217v-897h369v897h224v-1106h-1403z" />
<glyph unicode="&#x449;" horiz-adv-x="1792" d="M162 0v1106h223v-897h370v897h217v-897h369v897h224v-897h149v-487h-207v278h-1345z" />
<glyph unicode="&#x44a;" horiz-adv-x="1271" d="M37 908v198h536v-329h235q182 0 295.5 -108t113.5 -281t-113.5 -280.5t-295.5 -107.5h-458v908h-313zM573 196h208q94 0 151 53t57 139q0 87 -57 140t-151 53h-208v-385z" />
<glyph unicode="&#x44b;" horiz-adv-x="1609" d="M162 0v1106h223v-329h235q182 0 295.5 -108t113.5 -281t-113.5 -280.5t-295.5 -107.5h-458zM385 196h208q94 0 150.5 52.5t56.5 139.5t-56.5 140t-150.5 53h-208v-385zM1221 0v1106h227v-1106h-227z" />
<glyph unicode="&#x44c;" horiz-adv-x="1083" d="M162 0v1106h223v-329h235q182 0 295.5 -108t113.5 -281t-113.5 -280.5t-295.5 -107.5h-458zM385 196h208q94 0 150.5 52.5t56.5 139.5t-56.5 140t-150.5 53h-208v-385z" />
<glyph unicode="&#x44d;" horiz-adv-x="1275" d="M60 411h225q39 -107 128.5 -170.5t203.5 -63.5q134 0 229 80t122 210h-458v180h457q-27 128 -121.5 205.5t-228.5 77.5q-112 0 -202 -60t-131 -160h-220q47 190 197 306.5t353 116.5q163 0 296.5 -75.5t209 -207.5t75.5 -293q0 -122 -45 -230t-122 -186t-185 -123 t-229 -45q-204 0 -356 121.5t-198 316.5z" />
<glyph unicode="&#x44e;" horiz-adv-x="1769" d="M162 -1v1107h226v-447h166q34 211 188 342.5t372 131.5q122 0 228.5 -44t182.5 -121t119.5 -185t43.5 -231q0 -251 -162.5 -415t-411.5 -164q-221 0 -374.5 131t-186.5 343h-165v-448h-226zM769 552q0 -155 98.5 -258.5t246.5 -103.5t246.5 103.5t98.5 258.5 q0 156 -99 260t-246 104q-148 0 -246.5 -104t-98.5 -260z" />
<glyph unicode="&#x44f;" horiz-adv-x="1161" d="M58 0l264 442q-101 41 -158 123.5t-57 189.5q0 151 103.5 251t261.5 100h527v-1106h-220v405h-233l-240 -405h-248zM336 754q0 -67 45.5 -108.5t120.5 -41.5h277v300h-277q-75 0 -120.5 -41.5t-45.5 -108.5z" />
<glyph unicode="&#x451;" horiz-adv-x="1292" d="M81 553q0 163 74 296t204 208.5t290 75.5q165 0 295 -78.5t199.5 -211t69.5 -293.5q0 -32 -5 -74h-898q21 -134 112 -212t227 -78q98 0 175.5 43t121.5 119h240q-66 -175 -209 -275t-328 -100q-242 0 -405 166.5t-163 413.5zM304 1275v237h249v-237h-249zM316 660h669 q-31 126 -120.5 197t-215.5 71q-127 0 -216 -72t-117 -196zM737 1275v237h249v-237h-249z" />
<glyph unicode="&#x452;" horiz-adv-x="1314" d="M-29 1211v171h191v120h227v-120h355v-171h-355v-228q65 69 158 107.5t202 38.5q193 0 305.5 -125t112.5 -340v-652q0 -181 -109.5 -291t-290.5 -110h-76v206h43q96 0 151 55.5t55 151.5v588q0 151 -64.5 230t-189.5 79q-130 0 -213.5 -94.5t-83.5 -241.5v-585h-227v1211 h-191z" />
<glyph unicode="&#x453;" horiz-adv-x="903" d="M162 0v1106h707v-202h-484v-904h-223zM398 1233l127 311h242l-194 -311h-175z" />
<glyph unicode="&#x454;" horiz-adv-x="1275" d="M81 557q0 161 75.5 293t209 207.5t296.5 75.5q203 0 353 -116.5t197 -306.5h-220q-41 100 -131 160t-202 60q-134 0 -228.5 -77.5t-121.5 -205.5h457v-180h-458q27 -130 122 -210t229 -80q114 0 203.5 63.5t128.5 170.5h225q-46 -195 -198 -316.5t-356 -121.5 q-121 0 -229 45t-185 123t-122 186t-45 230z" />
<glyph unicode="&#x455;" horiz-adv-x="1060" d="M78 351h222q4 -85 69.5 -131.5t168.5 -46.5q94 0 155 38.5t61 105.5q0 30 -14.5 54t-35 38.5t-58 26.5t-67 18t-79.5 15q-51 9 -81 15t-78 19.5t-77.5 28.5t-64.5 40t-54.5 55.5t-33 74.5t-13.5 97q0 149 118.5 241.5t310.5 92.5t308.5 -96.5t119.5 -257.5h-215 q-3 78 -60 119.5t-158 41.5q-94 0 -149 -36.5t-55 -97.5q0 -24 8 -42.5t27.5 -32.5t37 -23t52 -17t56.5 -12.5t65 -11.5q162 -27 233 -57q170 -73 180 -257q1 -12 1 -26q0 -161 -123 -257.5t-325 -96.5t-324.5 103t-127.5 275z" />
<glyph unicode="&#x456;" d="M158 1277v235h235v-235h-235zM162 0v1106h227v-1106h-227z" />
<glyph unicode="&#x457;" d="M-9 1275v237h217v-237h-217zM162 0v1106h227v-1106h-227zM342 1274v236h217v-236h-217z" />
<glyph unicode="&#x458;" horiz-adv-x="575" d="M-88 -188h79q95 0 145.5 50.5t50.5 145.5v1098h227v-1115q0 -173 -107.5 -280t-281.5 -107h-113v208zM184 1277v235h235v-235h-235z" />
<glyph unicode="&#x459;" horiz-adv-x="1779" d="M40 -5v207h57q80 0 125.5 49t56.5 152l79 703h716v-334h245q181 0 294 -107t113 -280q0 -172 -112.5 -278.5t-294.5 -106.5h-460v908h-313l-49 -487q-23 -232 -121 -329t-294 -97h-42zM1074 189h222q93 0 150 54t57 142q0 89 -57 143.5t-150 54.5h-222v-394z" />
<glyph unicode="&#x45a;" horiz-adv-x="1759" d="M162 0v1106h223v-414h468v414h222v-350h231q181 0 290 -104t109 -273q0 -170 -109 -274.5t-290 -104.5h-453v483h-468v-483h-223zM1075 199h203q92 0 145 48.5t53 131.5t-53 130.5t-145 47.5h-203v-358z" />
<glyph unicode="&#x45b;" horiz-adv-x="1314" d="M-26 1211v171h188v120h227v-120h357v-171h-357v-231q65 72 158 111.5t202 39.5q193 0 305.5 -125t112.5 -339v-667h-227v620q0 151 -64 229t-190 78q-129 0 -213 -94t-84 -241v-592h-227v1211h-188z" />
<glyph unicode="&#x45c;" horiz-adv-x="1134" d="M162 0v1106h227v-428h140l299 428h269l-374 -530l415 -576h-279l-332 472h-138v-472h-227zM501 1233l127 311h242l-194 -311h-175z" />
<glyph unicode="&#x45d;" horiz-adv-x="1261" d="M162 0v1106h219v-696l591 696h127v-1106h-217v702l-590 -702h-130zM374 1544h242l127 -311h-175z" />
<glyph unicode="&#x45e;" horiz-adv-x="1214" d="M23 1106h247l351 -771l330 771h242l-508 -1126q-95 -211 -194 -293.5t-266 -82.5h-113v204h95q108 0 159 42.5t113 177.5l25 52zM338 1301v169h549v-169h-549z" />
<glyph unicode="&#x45f;" horiz-adv-x="1277" d="M162 0v1106h223v-897h509v897h223v-1106h-368v-276h-218v276h-369z" />
<glyph unicode="&#x490;" horiz-adv-x="1013" d="M182 0v1434h571v215h218v-435h-553v-1214h-236z" />
<glyph unicode="&#x491;" horiz-adv-x="903" d="M162 0v1106h492v236h215v-438h-484v-904h-223z" />
<glyph unicode="&#x1e80;" horiz-adv-x="2115" d="M37 1434h249l324 -1059l402 1038h87l413 -1038l316 1059h247l-448 -1434h-208l-363 925l-353 -925h-209zM772 1876h242l134 -290h-175z" />
<glyph unicode="&#x1e81;" horiz-adv-x="1740" d="M32 1106h234l250 -745l317 733h74l321 -739l254 751h228l-371 -1106h-184l-285 673l-284 -673h-184zM603 1544h242l126 -311h-175z" />
<glyph unicode="&#x1e82;" horiz-adv-x="2115" d="M37 1434h249l324 -1059l402 1038h87l413 -1038l316 1059h247l-448 -1434h-208l-363 925l-353 -925h-209zM952 1586l134 290h242l-201 -290h-175z" />
<glyph unicode="&#x1e83;" horiz-adv-x="1740" d="M32 1106h234l250 -745l317 733h74l321 -739l254 751h228l-371 -1106h-184l-285 673l-284 -673h-184zM751 1233l127 311h242l-194 -311h-175z" />
<glyph unicode="&#x1e84;" horiz-adv-x="2115" d="M36 1434h250l324 -1059l402 1038h87l413 -1038l316 1059h247l-448 -1434h-208l-363 925l-353 -925h-209zM700 1594v234h250v-234h-250zM1159 1594v234h250v-234h-250z" />
<glyph unicode="&#x1e85;" horiz-adv-x="1740" d="M32 1106h234l250 -745l317 733h74l321 -739l254 751h228l-371 -1106h-184l-285 673l-284 -673h-184zM524 1275v237h250v-237h-250zM957 1275v237h250v-237h-250z" />
<glyph unicode="&#x1e9e;" horiz-adv-x="1443" d="M169 0v968q0 215 126 340.5t341 125.5h608v-40l-250 -471q169 -32 266 -149t97 -294q0 -212 -144 -346t-387 -134h-191v224h191q129 0 210 72.5t81 185.5q0 115 -80.5 187.5t-210.5 72.5h-153v42l228 427h-225q-131 0 -200 -68t-69 -199v-944h-238z" />
<glyph unicode="&#x1ef2;" horiz-adv-x="1366" d="M47 1434h254l383 -642l384 642h254l-519 -860v-574h-242v575zM402 1876h242l134 -290h-175z" />
<glyph unicode="&#x1ef3;" horiz-adv-x="1214" d="M23 1106h247l351 -771l330 771h242l-508 -1126q-95 -211 -194 -293.5t-266 -82.5h-113v204h95q108 0 159 42.5t113 177.5l25 52zM348 1544h242l127 -311h-175z" />
<glyph unicode="&#x2000;" horiz-adv-x="1019" />
<glyph unicode="&#x2001;" horiz-adv-x="2038" />
<glyph unicode="&#x2002;" horiz-adv-x="1019" />
<glyph unicode="&#x2003;" horiz-adv-x="2038" />
<glyph unicode="&#x2004;" horiz-adv-x="679" />
<glyph unicode="&#x2005;" horiz-adv-x="509" />
<glyph unicode="&#x2006;" horiz-adv-x="339" />
<glyph unicode="&#x2007;" horiz-adv-x="339" />
<glyph unicode="&#x2008;" horiz-adv-x="254" />
<glyph unicode="&#x2009;" horiz-adv-x="407" />
<glyph unicode="&#x200a;" horiz-adv-x="113" />
<glyph unicode="&#x2010;" horiz-adv-x="925" d="M135 464v219h657v-219h-657z" />
<glyph unicode="&#x2011;" horiz-adv-x="925" d="M135 464v219h657v-219h-657z" />
<glyph unicode="&#x2012;" horiz-adv-x="925" d="M135 464v219h657v-219h-657z" />
<glyph unicode="&#x2013;" horiz-adv-x="1310" d="M135 464v219h1041v-219h-1041z" />
<glyph unicode="&#x2014;" horiz-adv-x="1841" d="M135 464v219h1572v-219h-1572z" />
<glyph unicode="&#x2018;" horiz-adv-x="495" d="M117 1000v240q0 132 65 212t181 102v-118q-128 -30 -128 -177h140v-259h-258z" />
<glyph unicode="&#x2019;" horiz-adv-x="483" d="M126 1217v260h258v-240q0 -132 -65 -211.5t-181 -102.5v118q128 30 128 176h-140z" />
<glyph unicode="&#x201a;" horiz-adv-x="528" d="M135 0v260h258v-241q0 -132 -65 -211t-181 -102v117q128 30 128 177h-140z" />
<glyph unicode="&#x201c;" horiz-adv-x="899" d="M117 1003v240q0 132 65 211.5t181 102.5v-118q-128 -30 -128 -177h140v-259h-258zM520 1003v240q0 132 65 211.5t181 102.5v-118q-128 -30 -128 -177h140v-259h-258z" />
<glyph unicode="&#x201d;" horiz-adv-x="886" d="M126 1217v260h258v-240q0 -132 -65 -211.5t-181 -102.5v118q128 30 128 176h-140zM530 1217v260h258v-240q0 -132 -65 -211.5t-181 -102.5v118q128 30 128 176h-140z" />
<glyph unicode="&#x201e;" horiz-adv-x="931" d="M135 0v260h258v-241q0 -132 -65 -211t-181 -102v117q128 30 128 177h-140zM539 0v260h258v-241q0 -132 -65 -211t-181 -102v117q128 30 128 177h-140z" />
<glyph unicode="&#x2020;" horiz-adv-x="1040" d="M59 853v207h350v374h222v-374h350v-207h-350v-935h-222v935h-350z" />
<glyph unicode="&#x2021;" horiz-adv-x="1124" d="M101 292v207h349v354h-349v207h349v374h223v-374h350v-207h-350v-354h350v-207h-350v-374h-223v374h-349z" />
<glyph unicode="&#x2022;" horiz-adv-x="745" d="M160 600q0 92 61 152.5t152 60.5q92 0 152.5 -60.5t60.5 -152.5q0 -91 -60.5 -152t-152.5 -61q-91 0 -152 61t-61 152z" />
<glyph unicode="&#x2026;" horiz-adv-x="1257" d="M133 0v261h250v-261h-250zM504 0v261h249v-261h-249zM874 0v261h250v-261h-250z" />
<glyph unicode="&#x202f;" horiz-adv-x="407" />
<glyph unicode="&#x2030;" horiz-adv-x="2351" d="M62 1069q0 138 89 226t228 88t228 -88t89 -226q0 -139 -89 -227.5t-228 -88.5t-228 88.5t-89 227.5zM233 1069q0 -64 41.5 -106.5t104.5 -42.5q64 0 105.5 42t41.5 107q0 64 -41.5 105.5t-105.5 41.5q-63 0 -104.5 -41.5t-41.5 -105.5zM273 1l821 1362h205l-821 -1362 h-205zM900 295q0 138 88.5 225t227.5 87t228 -87t89 -225t-89 -225.5t-228 -87.5t-227.5 87.5t-88.5 225.5zM1071 295q0 -64 41 -105t104 -41q64 0 105 41t41 105t-41 105t-105 41q-63 0 -104 -41t-41 -105zM1660 295q0 138 88.5 225t227.5 87t227.5 -87t88.5 -225 t-88.5 -225.5t-227.5 -87.5t-227.5 87.5t-88.5 225.5zM1831 295q0 -64 41 -105t104 -41q64 0 104.5 41t40.5 105t-40.5 105t-104.5 41q-63 0 -104 -41t-41 -105z" />
<glyph unicode="&#x2039;" horiz-adv-x="765" d="M70 531v31l337 416h268l-344 -431l344 -431h-268z" />
<glyph unicode="&#x203a;" horiz-adv-x="765" d="M91 116l344 431l-344 431h269l336 -416v-31l-336 -415h-269z" />
<glyph unicode="&#x2044;" horiz-adv-x="335" d="M-332 -61l827 1556h178l-827 -1556h-178z" />
<glyph unicode="&#x205f;" horiz-adv-x="509" />
<glyph unicode="&#x20ac;" horiz-adv-x="1329" d="M69 421l43 180h137q-4 37 -4 85q0 38 3 75h-174l43 179h170q74 211 257 335.5t411 124.5q161 0 304 -59l-46 -188q-109 47 -243 47q-145 0 -264 -69t-183 -191h629l-44 -179h-641q-4 -32 -4 -75q0 -44 6 -85h599l-43 -180h-497q65 -118 182.5 -184t259.5 -66 q123 0 227 43v-200q-117 -42 -247 -42q-224 0 -403.5 122t-255.5 327h-222z" />
<glyph unicode="&#x20bd;" horiz-adv-x="1230" d="M112 258v161h147v150h-147v179h147v614h494q184 0 298.5 -111.5t114.5 -289.5q0 -177 -115 -288.5t-298 -111.5h-271v-142h398v-161h-398v-258h-223v258h-147zM482 756h249q93 0 154.5 58.5t61.5 146.5q0 89 -61.5 147.5t-154.5 58.5h-249v-411z" />
<glyph unicode="&#x2122;" horiz-adv-x="1339" d="M63 1337v97h446v-97h-165v-415h-106v415h-175zM535 922l85 512h92l165 -341l165 341h93l84 -512h-103l-57 347l-171 -347h-22l-170 347l-58 -347h-103z" />
<glyph unicode="&#x2202;" horiz-adv-x="1282" d="M62 423q0 108 40 208.5t112.5 178.5t184 125t243.5 47q200 0 325 -123q-18 406 -461 406q-93 0 -233 -20v192q141 22 253 22q319 0 485.5 -166t166.5 -503q0 -169 -36 -327q-53 -231 -211.5 -360t-393.5 -129q-114 0 -205.5 35.5t-150 97.5t-89 142.5t-30.5 173.5z M283 442q0 -121 77 -195t204 -74q154 0 258.5 104t104.5 258q0 117 -77.5 190t-203.5 73q-154 0 -258.5 -102t-104.5 -254z" />
<glyph unicode="&#x220f;" horiz-adv-x="1503" d="M70 1214v220h1364v-220h-196v-1542h-241v1542h-491v-1542h-240v1542h-196z" />
<glyph unicode="&#x2211;" horiz-adv-x="1226" d="M59 -290l569 855l-569 829v40h1074v-218h-663l441 -635v-31l-443 -660h673v-220h-1082v40z" />
<glyph unicode="&#x221a;" horiz-adv-x="1390" d="M29 831v195h416l259 -632l483 1142h228l-667 -1536h-92l-349 831h-278z" />
<glyph unicode="&#x221e;" horiz-adv-x="1980" d="M98 686q0 177 120 291.5t302 114.5q74 0 141 -21t126.5 -61.5t105 -83t98.5 -101.5q52 60 97.5 102t104 82.5t126 61.5t141.5 21q182 0 302 -114.5t120 -291.5q0 -178 -120 -292t-302 -114q-74 0 -141 21t-126 61.5t-104.5 83t-97.5 102.5q-53 -60 -98.5 -102t-104.5 -83 t-126.5 -62t-141.5 -21q-182 0 -302 115.5t-120 290.5zM299 686q0 -100 63.5 -159.5t170.5 -59.5q91 0 169 56t170 163q-92 107 -170 163t-169 56q-106 0 -170 -59.5t-64 -159.5zM1110 686q93 -107 171 -163t169 -56q106 0 168.5 59.5t62.5 159.5t-62.5 159.5t-168.5 59.5 q-92 0 -169 -55.5t-171 -163.5z" />
<glyph unicode="&#x222b;" horiz-adv-x="806" d="M-13 -416h56q123 0 187 64t64 187v1653q0 188 107.5 296t294.5 108h123v-206h-57q-119 0 -181 -62.5t-62 -181.5v-1653q0 -192 -109.5 -302t-299.5 -110h-123v207z" />
<glyph unicode="&#x2248;" horiz-adv-x="1206" d="M140 741v36q0 153 75 243.5t203 90.5q72 0 128.5 -26t119.5 -85q45 -40 72.5 -55t58.5 -15q52 0 84.5 39t32.5 103v31h161v-34q0 -154 -73.5 -243.5t-200.5 -89.5q-71 0 -130 26t-128 85q-44 38 -70 52.5t-53 14.5q-51 0 -84.5 -40.5t-33.5 -103.5v-29h-162zM143 275v35 q0 153 75 244t203 91q72 0 128.5 -26t119.5 -85q45 -40 72.5 -55t58.5 -15q52 0 84.5 39t32.5 103v31h161v-34q0 -154 -73.5 -244t-200.5 -90q-71 0 -130 26t-128 85q-44 38 -70 52.5t-53 14.5q-51 0 -84.5 -40t-33.5 -103v-29h-162z" />
<glyph unicode="&#x2260;" horiz-adv-x="1267" d="M142 359v209h357l61 241h-418v210h471l72 289h191l-73 -289h322v-210h-374l-61 -241h435v-209h-488l-68 -271h-191l68 271h-304z" />
<glyph unicode="&#x2264;" horiz-adv-x="1132" d="M80 795v89l914 484v-214l-565 -313l565 -302v-218zM123 0v205h879v-205h-879z" />
<glyph unicode="&#x2265;" horiz-adv-x="1132" d="M130 0v205h880v-205h-880zM138 321v218l566 302l-566 313v214l914 -484v-89z" />
<glyph unicode="&#x25ca;" horiz-adv-x="1140" d="M66 703v32l488 699h32l488 -699v-32l-488 -703h-32zM256 717l314 -448l314 450l-314 448z" />
<glyph unicode="&#x25fc;" horiz-adv-x="1105" d="M0 0v1106h1106v-1106h-1106z" />
</font>
</defs>
</svg>
